<svg width="410" height="368" version="1.1" xmlns="http://www.w3.org/2000/svg" desc="Created with imagetracer.js version 1.2.6" ><path fill="rgb(193,34,62)" stroke="rgb(193,34,62)" stroke-width="1" opacity="1" d="M 252.5 16 L 265 16.5 L 252.5 17 L 252.5 16 Z " /><path fill="rgb(193,34,62)" stroke="rgb(193,34,62)" stroke-width="1" opacity="1" d="M 248.5 17 L 250 17.5 L 237 25 Q 238.1 27.7 235.5 27 L 234 30 L 232 30 Q 233.1 32.7 230.5 32 L 222 39.5 L 219 45 L 212 50.5 L 211 53.5 L 214.5 58 Q 216.8 57.3 216 59.5 L 227 69.5 L 229.5 73 L 232 74.5 L 234.5 78 L 238 76.5 Q 237.3 74.3 239.5 75 L 241 72 L 244 70.5 L 250.5 63 L 254 60.5 L 255.5 58 L 258.5 57 L 269 65 L 270.5 68 L 274 70.5 L 277.5 75 Q 279.8 74.3 279 76.5 L 282 78 L 285.5 83 Q 287.8 82.3 287 84.5 L 294 90.5 L 297.5 95 L 301 97.5 L 304.5 102 Q 306.8 101.3 306 103.5 L 309 105 L 310.5 108 L 312 108 L 312 110 Q 314.7 108.9 314 111.5 L 319 115 L 319 117 Q 321.7 115.9 321 118.5 L 329 126.5 L 329 130.5 L 306 152.5 L 300.5 159 Q 298.3 158.3 299 160.5 L 289 169.5 L 285.5 174 Q 283.3 173.3 284 175.5 L 269 189.5 L 266.5 193 L 264 194.5 L 261.5 198 Q 259.3 197.3 260 199.5 L 252 206 L 252 208 Q 249.3 206.9 250 209.5 Q 242 213.5 250 217.5 Q 249.3 219.8 251.5 219 Q 256.3 224.2 264.5 226 L 279.5 226 L 286.5 223 L 295 217 L 298.5 212 Q 300.8 212.8 300 210.5 L 305 207 L 306.5 204 L 308 204 L 308 202 Q 310.7 203.1 310 200.5 L 313 199 L 313 197 Q 315.7 198.1 315 195.5 L 321 190.5 L 323.5 187 L 325 187 L 325 185 Q 327.7 186.1 327 183.5 L 330 182 L 332.5 178 L 335 176.5 L 338.5 172 L 340 172 L 340 170 Q 342.7 171.1 342 168.5 L 345 167 L 345 165 Q 347.7 166.1 347 163.5 L 351 161 L 353.5 157 L 357 154.5 L 358.5 152 L 362 149.5 L 369 136.5 L 370 126.5 Q 367.5 125 369 119.5 L 364 109 Q 361.3 110.1 362 107.5 L 357 104 L 354.5 100 L 352 98.5 L 350 95.5 L 347 94 Q 348.1 91.3 345.5 92 L 344 89 L 342 89 L 342 87 Q 339.3 88.1 340 85.5 L 334 80.5 Q 334.7 77.9 332 79 L 332 77 L 330.5 77 L 329 74 L 327 74 Q 328.1 71.3 325.5 72 L 324 69 L 322 69 L 322 67 Q 319.3 68.1 320 65.5 L 317 64 Q 318.1 61.3 315.5 62 L 312 57 Q 309.3 58.1 310 55.5 L 307 54 L 307 52 Q 304.3 53.1 305 50.5 L 300 46.5 L 297.5 43 L 290 36.5 L 286.5 32 L 283 29.5 L 281.5 27 L 278 24.5 Q 278.8 22.3 276.5 23 L 273 22 Q 274.3 19 270.5 20 L 266 17.5 L 268.5 17 L 276.5 21 L 289.5 34 L 291 34 L 294.5 39 Q 296.8 38.3 296 40.5 L 302 45 L 304.5 49 L 308 51.5 L 310.5 55 L 313 56.5 L 315.5 60 L 318 61.5 L 320.5 65 L 324 67.5 L 325.5 70 L 328 71.5 L 330.5 75 L 341 84.5 Q 340.3 86.8 342.5 86 L 347.5 92 L 351 94.5 L 352.5 97 L 364 107.5 Q 372.5 116 371 134.5 L 368 143.5 L 357.5 156 L 335 177.5 Q 335.8 179.8 333.5 179 L 312 200.5 L 312 202 L 310.5 202 L 289.5 223 L 276.5 228 L 266.5 228 L 255.5 224 L 245 216 L 244 213.5 L 328 129.5 L 328 127.5 L 259.5 59 L 257.5 59 L 242 73.5 Q 242.8 75.8 240.5 75 L 234.5 80 L 214 59.5 L 214 58 L 209 54.5 L 209 51.5 L 237.5 23 L 248.5 17 Z " /><path fill="rgb(193,34,62)" stroke="rgb(193,34,62)" stroke-width="1" opacity="1" d="M 172.5 88 L 236 150.5 L 236 152.5 L 222.5 166 Q 220.3 165.3 221 167.5 L 211.5 177 L 208.5 178 L 203 174 L 201.5 171 L 198 168.5 L 194.5 164 Q 192.3 164.8 193 162.5 L 190 161 L 190 159.5 L 179.5 149 L 177 147.5 L 174.5 144 Q 172.3 144.8 173 142.5 L 167 138 Q 161.7 132.1 159 122.5 L 159 108.5 Q 162.5 95 172.5 88 Z M 174 90 L 172 91 Q 163 98 160 111 L 160 120 L 163 130 L 165 132 Q 164 134 167 133 L 170 139 L 173 141 Q 172 143 175 142 L 177 145 Q 179 144 178 147 L 183 150 L 186 155 L 190 158 Q 189 160 192 159 L 199 167 Q 201 166 200 169 L 209 176 Q 212 177 211 175 L 215 172 L 218 167 L 226 161 Q 225 158 228 159 L 228 157 L 231 156 Q 230 153 233 154 L 234 152 L 233 150 L 228 146 L 222 138 Q 219 139 220 137 L 208 124 L 206 124 L 203 119 Q 200 120 201 118 L 198 116 L 196 111 L 191 109 L 188 104 Q 185 105 186 103 L 182 99 L 174 90 Z " /><path fill="rgb(0,0,0)" stroke="rgb(0,0,0)" stroke-width="1" opacity="0" d="M 0 0 L 410 0 L 410 368 L 0 368 L 0 0 Z M 255 14 L 242 18 L 228 31 Q 225 30 226 33 L 218 41 L 216 41 L 213 46 Q 210 45 211 48 L 209 48 L 206 53 L 207 55 L 236 82 L 258 61 L 260 61 L 268 71 L 271 72 L 274 77 L 291 93 Q 290 95 293 94 L 295 98 L 300 102 Q 299 104 302 103 L 317 120 L 326 128 L 312 143 Q 313 145 311 144 L 308 148 L 306 149 L 292 164 L 288 167 L 284 172 L 283 172 L 267 188 Q 268 190 266 189 L 263 193 L 261 194 L 245 211 L 242 212 L 243 216 L 246 217 Q 247 220 245 219 L 241 214 L 238 212 L 231 204 L 230 204 L 210 184 L 206 187 Q 203 186 204 189 L 188 204 L 180 213 L 180 215 L 224 258 L 225 258 L 229 263 Q 231 262 230 265 L 244 278 L 247 278 Q 257 271 261 257 Q 262 246 260 239 L 251 224 Q 248 225 249 223 L 248 220 L 254 225 L 266 230 L 278 230 Q 288 227 295 221 L 313 203 L 313 201 L 315 201 L 339 177 Q 338 174 341 175 L 365 151 Q 371 145 373 136 Q 374 125 372 119 L 366 108 L 279 20 Q 270 14 255 14 Z M 149 19 Q 134 23 126 34 Q 127 36 125 35 L 105 55 L 105 56 L 100 60 Q 101 62 99 61 L 85 76 L 80 80 Q 81 82 79 81 L 74 87 L 73 87 L 63 97 Q 64 99 62 98 L 45 116 L 40 130 Q 39 144 46 152 Q 45 154 48 153 L 50 157 Q 49 159 52 158 L 69 177 L 79 185 L 81 185 L 104 162 L 104 160 L 108 158 L 108 155 L 88 135 L 88 132 L 110 110 Q 112 111 111 109 L 122 99 L 132 88 Q 134 89 133 87 L 148 73 L 154 66 L 156 66 L 166 75 L 168 79 L 172 81 L 179 90 L 182 91 L 188 99 L 190 99 L 199 109 Q 198 111 201 110 L 205 116 L 208 117 L 213 124 L 226 136 Q 225 138 228 137 L 234 145 L 240 148 L 242 148 Q 244 147 243 150 L 240 152 L 238 155 L 219 173 L 211 182 L 211 184 L 239 211 L 242 211 L 255 198 L 255 196 L 257 196 L 282 171 Q 284 172 283 170 L 289 165 L 290 163 L 301 152 L 302 152 L 306 147 L 303 142 Q 300 143 301 141 L 297 136 L 283 130 L 270 130 L 253 138 L 251 142 L 249 142 L 254 135 L 257 122 L 255 109 L 247 95 L 246 95 L 177 26 L 163 19 L 149 19 Z M 173 86 L 171 88 Q 168 87 169 90 L 164 93 L 157 109 L 157 123 L 163 136 L 174 147 Q 171 148 172 145 L 166 140 L 154 135 Q 143 134 136 136 Q 122 142 114 154 Q 111 153 112 156 L 108 158 L 108 160 L 92 176 Q 89 175 90 178 L 87 179 L 87 181 L 72 196 Q 69 195 70 198 L 68 199 L 66 202 L 59 207 L 49 220 L 45 231 Q 44 242 47 249 L 50 255 L 63 268 L 65 271 L 68 272 L 69 275 L 73 277 L 74 280 L 77 281 L 88 293 Q 90 292 89 295 L 94 298 L 96 302 L 102 307 Q 101 309 104 308 L 110 315 Q 112 314 111 317 L 129 334 Q 128 336 131 335 L 134 340 L 141 345 L 154 350 L 172 349 L 181 344 L 197 327 L 212 313 L 210 308 Q 207 309 208 307 L 204 303 L 200 298 L 197 297 Q 198 294 195 295 L 190 288 Q 187 289 188 286 L 184 283 L 182 283 L 167 298 L 165 298 L 164 301 Q 161 300 162 303 L 157 302 L 155 300 L 152 297 L 150 295 L 136 281 L 134 279 L 131 276 L 129 274 L 126 271 L 121 265 Q 118 266 119 264 L 116 261 L 113 258 L 111 256 L 105 249 Q 102 250 103 248 L 94 238 L 92 238 L 95 233 L 99 230 L 101 227 L 104 225 L 106 222 L 111 218 L 113 215 L 116 213 L 119 209 L 126 203 L 128 200 L 139 190 L 140 187 L 146 183 L 148 180 L 165 164 L 168 159 L 171 158 Q 170 155 173 156 L 175 153 L 176 148 L 178 149 L 178 151 L 208 180 L 211 180 L 238 153 L 238 151 L 217 130 L 217 128 L 216 128 L 173 86 Z M 178 153 L 157 174 Q 154 173 155 176 L 153 176 L 153 178 L 137 194 L 135 194 L 133 198 Q 130 197 131 200 L 122 207 L 122 209 L 113 218 L 116 224 L 128 232 L 140 235 L 150 234 L 164 227 L 169 223 L 164 230 L 161 241 L 161 250 L 164 260 L 169 267 L 195 292 Q 197 291 196 294 L 242 339 L 250 344 L 261 347 L 262 346 L 271 346 Q 281 342 289 336 L 296 326 L 308 317 L 325 299 Q 327 300 326 298 L 332 293 L 333 291 L 338 287 L 345 279 Q 347 280 346 278 L 371 253 L 372 253 L 378 238 L 378 226 L 373 213 L 369 209 Q 370 206 368 207 L 359 198 L 357 196 L 350 188 L 341 180 L 338 180 L 314 204 L 312 204 L 310 208 L 311 212 L 330 231 L 330 234 L 312 249 L 305 259 L 304 259 L 276 286 L 273 290 L 270 291 L 265 298 Q 260 299 261 297 L 258 294 L 254 290 L 252 288 L 242 278 L 239 275 L 221 258 L 221 256 L 220 256 L 203 240 Q 204 237 202 238 L 188 225 L 188 223 L 180 216 L 175 216 L 207 184 L 207 182 L 178 153 Z " /><path fill="rgb(0,0,0)" stroke="rgb(0,0,0)" stroke-width="1" opacity="0" d="M 247.5 143 L 248 145 L 246 144.5 L 247.5 143 Z " /><path fill="rgb(0,0,0)" stroke="rgb(0,0,0)" stroke-width="1" opacity="0" d="M 173.5 217 L 174 219 L 172 218.5 L 173.5 217 Z " /><path fill="rgb(156,15,116)" stroke="rgb(156,15,116)" stroke-width="1" opacity="1" d="M 141.5 137 L 156.5 138 Q 166.9 142.6 174 150.5 L 171.5 154 L 168 156.5 L 166.5 159 L 163 161.5 Q 163.8 163.8 161.5 163 L 149.5 176 Q 147.3 175.3 148 177.5 L 141 183.5 L 139.5 186 L 136 188.5 L 134.5 191 L 131 193.5 L 127.5 198 L 121 203.5 Q 121.8 205.8 119.5 205 L 108.5 217 L 105 219.5 L 103.5 222 L 93 231.5 Q 93.8 233.8 91.5 233 L 89 234.5 L 90.5 232 Q 92.8 232.8 92 230.5 L 93 228 L 97 225.5 L 98.5 223 L 102 220.5 L 103.5 217 L 106 215.5 L 105.5 214 L 107.5 214 Q 109.8 214.8 109 212.5 L 112 211 L 114 206 L 121 200.5 L 122.5 198 L 127 196 L 127 194 Q 129.7 195.1 129 192.5 L 132 191 L 133 187 L 135.5 187 L 140 182.5 L 142.5 179 Q 144.8 179.8 144 177.5 L 152 170.5 L 151 168.5 L 152.5 169 L 159 163.5 Q 158.3 161.3 160.5 162 L 162 159 Q 164.7 160.1 164 157.5 L 171 153 L 171 150 Q 168.3 151.1 169 148.5 L 164 146 Q 165.1 143.3 162.5 144 L 152.5 139 L 150.5 139 L 140.5 139 L 126 146 Q 127.1 148.7 124.5 148 L 123 151 Q 120.3 149.9 121 152.5 L 118 154 Q 119.1 156.7 116.5 156 L 113 161 Q 110.3 159.9 111 162.5 L 108.5 166 L 106 166 Q 107.1 168.7 104.5 168 L 105 169.5 L 104.5 171 L 102.5 171 Q 99.9 170.3 101 173 L 99 173 L 99 174.5 L 98 177 L 91 181 Q 92 184 89 183 L 89 186 L 86 186 L 86 188 L 84 188 Q 85.1 190.7 82.5 190 L 77.5 196 L 72.5 200 L 69 205 L 66 206.5 L 66 208 L 64 208 Q 65.1 210.7 62.5 210 L 58 214.5 L 58.5 216 L 57 216.5 L 57.5 218 Q 55.7 215.3 54 219.5 Q 54.7 222.1 52 221 L 52 225.5 L 51 228 L 49 228.5 L 49 242.5 Q 52.7 245.2 52 251 Q 55.8 249.5 55 252.5 L 60.5 261 L 69 268.5 L 71 271.5 L 64.5 266 L 60 262.5 Q 60.8 260.3 58.5 261 Q 51.1 254.9 48 244.5 L 47 231.5 L 52 218.5 L 58.5 211 L 63 207.5 Q 62.3 205.3 64.5 206 L 73 197.5 L 73 196 L 74.5 196 L 84 186.5 Q 83.3 184.3 85.5 185 L 100 170.5 L 100 169 L 101.5 169 L 127.5 143 L 141.5 137 Z " /><path fill="rgb(156,15,116)" stroke="rgb(156,15,116)" stroke-width="1" opacity="1" d="M 208 186 Q 210.7 184.9 210 187.5 L 220 196.5 L 222.5 200 L 225 201.5 L 233.5 211 Q 235.8 210.3 235 212.5 L 241 217.5 L 243.5 221 L 246 222.5 L 248.5 226 L 251 227.5 L 257 236.5 L 259 246.5 L 259 253.5 L 255 265.5 L 245.5 276 L 237 268.5 Q 237.8 266.3 235.5 267 L 188 219.5 L 188 218 L 182 213.5 Q 181.3 211.3 183.5 212 L 199.5 195 L 203 192.5 Q 202.3 190.3 204.5 191 L 208 186 Z M 207 190 L 207 192 L 195 201 L 194 205 Q 195 207 193 206 L 193 208 L 192 207 L 185 213 Q 184 217 188 215 L 188 218 L 191 219 L 194 224 L 198 227 Q 197 229 200 228 L 206 234 L 207 234 Q 206 237 209 236 L 213 243 L 215 243 L 224 252 L 227 252 L 226 255 L 228 258 L 232 260 L 237 267 L 243 272 Q 242 275 247 273 L 251 268 Q 250 265 253 266 L 258 250 L 257 248 L 257 244 Q 254 245 255 240 Q 251 238 254 237 L 251 232 Q 252 229 250 230 L 248 228 L 238 217 L 235 216 Q 232 215 233 211 L 230 210 Q 231 207 228 208 L 224 204 L 213 192 L 207 190 Z " /><path fill="rgb(156,15,116)" stroke="rgb(156,15,116)" stroke-width="1" opacity="1" d="M 88.5 237 L 92 239.5 Q 91.3 241.8 93.5 241 L 97.5 246 L 124 271.5 Q 123.3 273.8 125.5 273 L 138 285.5 L 138 287 L 143 290.5 Q 142.3 292.8 144.5 292 L 148 297 L 153 300.5 L 154.5 303 L 160.5 307 L 183.5 285 L 186.5 289 L 189 290.5 L 191.5 294 L 199 300.5 L 200.5 303 L 203.5 305 L 207.5 310 Q 210.1 309.2 209 312.5 L 185 335.5 L 178.5 343 L 168.5 348 L 155.5 349 Q 145 347 139 340.5 Q 139.8 338.3 137.5 339 L 129 331.5 L 126.5 328 L 123 325.5 L 110.5 312 L 107 309.5 L 104.5 306 L 99 301.5 L 92 292 L 89 292 Q 90.1 289.3 87.5 290 L 80.5 282 L 77 279.5 L 74.5 276 L 72 274.5 L 73.5 272 L 76 273 Q 75.3 276.8 78.5 278 Q 80.8 277.3 80 279.5 L 88 286 L 92.5 292 Q 96.3 290.8 95 294.5 L 103 301 L 103 303 Q 105.7 301.9 105 304.5 L 109 310 L 115 313.5 L 126.5 326 Q 130.3 324.8 129 328.5 L 133 331.5 L 137 338 L 148.5 345 L 155.5 347 L 164.5 347 L 175.5 343 L 179 339.5 L 177 336.5 L 178.5 336 Q 180 339.5 181.5 337 L 185 334.5 L 188.5 330 Q 190.8 330.8 190 328.5 L 198 321.5 L 206 312.5 L 206 310 L 203 308.5 L 191 294 L 189 294 Q 190.1 291.3 187.5 292 L 184 290 L 182.5 287 L 182 289 L 178 290 L 177 294 Q 174.3 292.9 175 295.5 L 169 300.5 L 163.5 307 L 157.5 308 L 147 298.5 L 145 295.5 L 138 287 Q 135.3 288.1 136 285.5 L 124 275.5 L 113 262 L 107 259 L 107 257 Q 104.3 258.1 105 255.5 L 101 252.5 L 96 245 L 89 239.5 L 88.5 237 Z " /><path fill="rgb(224,241,251)" stroke="rgb(224,241,251)" stroke-width="1" opacity="1" d="M 254.5 14 L 263 14.5 L 254.5 15 L 254.5 14 Z " /><path fill="rgb(224,241,251)" stroke="rgb(224,241,251)" stroke-width="1" opacity="1" d="M 243.5 17 L 242.5 19 L 241 18.5 L 243.5 17 Z " /><path fill="rgb(224,241,251)" stroke="rgb(224,241,251)" stroke-width="1" opacity="1" d="M 148.5 19 L 154 19.5 L 148.5 20 L 148.5 19 Z " /><path fill="rgb(224,241,251)" stroke="rgb(224,241,251)" stroke-width="1" opacity="1" d="M 156.5 19 Q 169.1 18.9 175 25.5 L 173.5 25 L 162.5 20 L 156.5 20 L 156.5 19 Z " /><path fill="rgb(224,241,251)" stroke="rgb(224,241,251)" stroke-width="1" opacity="1" d="M 144.5 20 L 147 20.5 L 138.5 24 L 139.5 22 L 144.5 20 Z " /><path fill="rgb(224,241,251)" stroke="rgb(224,241,251)" stroke-width="1" opacity="1" d="M 278.5 20 L 283.5 26 L 278.5 20 Z " /><path fill="rgb(224,241,251)" stroke="rgb(224,241,251)" stroke-width="1" opacity="1" d="M 136.5 24 L 133.5 28 L 127 33.5 L 126.5 35 L 126 33.5 L 136.5 24 Z " /><path fill="rgb(224,241,251)" stroke="rgb(224,241,251)" stroke-width="1" opacity="1" d="M 176.5 26 L 245.5 95 L 247 95 L 249 98.5 L 194.5 45 Q 192.3 45.8 193 43.5 L 178.5 29 L 177 29 L 176.5 26 Z " /><path fill="rgb(224,241,251)" stroke="rgb(224,241,251)" stroke-width="1" opacity="1" d="M 285.5 27 L 298.5 41 L 285.5 27 Z " /><path fill="rgb(224,241,251)" stroke="rgb(224,241,251)" stroke-width="1" opacity="1" d="M 124.5 35 L 125 37 L 123.5 37 L 105.5 55 L 124.5 35 Z " /><path fill="rgb(224,241,251)" stroke="rgb(224,241,251)" stroke-width="1" opacity="1" d="M 301.5 43 L 303.5 46 L 301.5 43 Z " /><path fill="rgb(224,241,251)" stroke="rgb(224,241,251)" stroke-width="1" opacity="1" d="M 306.5 48 L 308.5 51 L 306.5 48 Z " /><path fill="rgb(224,241,251)" stroke="rgb(224,241,251)" stroke-width="1" opacity="1" d="M 207.5 54 L 208.5 56 L 207.5 54 Z " /><path fill="rgb(224,241,251)" stroke="rgb(224,241,251)" stroke-width="1" opacity="1" d="M 312.5 54 L 318.5 61 L 312.5 54 Z " /><path fill="rgb(224,241,251)" stroke="rgb(224,241,251)" stroke-width="1" opacity="1" d="M 103.5 56 L 105 56.5 L 102 58.5 Q 102.8 60.8 100.5 60 L 103.5 56 Z " /><path fill="rgb(224,241,251)" stroke="rgb(224,241,251)" stroke-width="1" opacity="1" d="M 212.5 59 L 215.5 63 L 212.5 59 Z " /><path fill="rgb(224,241,251)" stroke="rgb(224,241,251)" stroke-width="1" opacity="1" d="M 257.5 60 L 259 60.5 L 254.5 64 L 257.5 60 Z " /><path fill="rgb(224,241,251)" stroke="rgb(224,241,251)" stroke-width="1" opacity="1" d="M 98.5 61 L 85.5 75 L 98.5 61 Z " /><path fill="rgb(224,241,251)" stroke="rgb(224,241,251)" stroke-width="1" opacity="1" d="M 154.5 64 L 164 72.5 Q 163.3 74.8 165.5 74 L 238.5 148 L 234 145 L 227.5 137 Q 225.3 137.8 226 135.5 L 213 123.5 L 207.5 117 L 205 115.5 L 200.5 110 Q 198.3 110.8 199 108.5 L 189.5 99 L 188 99 L 181.5 91 L 179 89.5 L 171.5 81 L 168 78.5 L 165.5 75 L 155.5 66 L 153.5 66 L 147.5 73 L 133 86.5 Q 133.8 88.8 131.5 88 L 121.5 99 L 111 108.5 Q 111.8 110.8 109.5 110 L 88 131.5 L 88 134.5 L 108 154.5 L 108 158 L 112 155.5 Q 111.3 153.3 113.5 154 L 127 141.5 L 87 180.5 L 86.5 179 L 80.5 185 L 78.5 185 L 69 176.5 L 51.5 158 Q 49.3 158.8 50 156.5 L 48.5 154 L 78.5 184 L 80.5 184 L 104 161.5 L 90.5 176 L 108 159.5 L 107.5 158 L 104.5 160 L 104.5 159 L 107 157.5 L 107 154.5 L 86 132.5 L 154.5 64 Z M 90 176 L 88 179 L 90 178 L 90 176 Z " /><path fill="rgb(224,241,251)" stroke="rgb(224,241,251)" stroke-width="1" opacity="1" d="M 217.5 64 L 220.5 68 L 217.5 64 Z " /><path fill="rgb(224,241,251)" stroke="rgb(224,241,251)" stroke-width="1" opacity="1" d="M 322.5 64 L 323.5 66 L 322.5 64 Z " /><path fill="rgb(224,241,251)" stroke="rgb(224,241,251)" stroke-width="1" opacity="1" d="M 252.5 65 L 243.5 75 L 252.5 65 Z " /><path fill="rgb(224,241,251)" stroke="rgb(224,241,251)" stroke-width="1" opacity="1" d="M 327.5 69 L 328.5 71 L 327.5 69 Z " /><path fill="rgb(224,241,251)" stroke="rgb(224,241,251)" stroke-width="1" opacity="1" d="M 223.5 70 L 225.5 73 L 223.5 70 Z " /><path fill="rgb(224,241,251)" stroke="rgb(224,241,251)" stroke-width="1" opacity="1" d="M 268.5 70 L 269.5 72 L 268.5 70 Z " /><path fill="rgb(224,241,251)" stroke="rgb(224,241,251)" stroke-width="1" opacity="1" d="M 333.5 75 L 335.5 78 L 333.5 75 Z " /><path fill="rgb(224,241,251)" stroke="rgb(224,241,251)" stroke-width="1" opacity="1" d="M 241.5 76 L 237.5 81 L 241.5 76 Z " /><path fill="rgb(224,241,251)" stroke="rgb(224,241,251)" stroke-width="1" opacity="1" d="M 274.5 76 L 276.5 79 L 274.5 76 Z " /><path fill="rgb(224,241,251)" stroke="rgb(224,241,251)" stroke-width="1" opacity="1" d="M 82.5 77 L 80.5 80 L 82.5 77 Z " /><path fill="rgb(224,241,251)" stroke="rgb(224,241,251)" stroke-width="1" opacity="1" d="M 232.5 79 L 233.5 81 L 232.5 79 Z " /><path fill="rgb(224,241,251)" stroke="rgb(224,241,251)" stroke-width="1" opacity="1" d="M 337.5 79 L 340.5 83 L 337.5 79 Z " /><path fill="rgb(224,241,251)" stroke="rgb(224,241,251)" stroke-width="1" opacity="1" d="M 78.5 81 L 80 81.5 L 74.5 86 L 78.5 81 Z " /><path fill="rgb(224,241,251)" stroke="rgb(224,241,251)" stroke-width="1" opacity="1" d="M 343.5 85 L 344.5 87 L 343.5 85 Z " /><path fill="rgb(224,241,251)" stroke="rgb(224,241,251)" stroke-width="1" opacity="1" d="M 72.5 87 L 63.5 97 L 72.5 87 Z " /><path fill="rgb(224,241,251)" stroke="rgb(224,241,251)" stroke-width="1" opacity="1" d="M 177.5 90 L 178.5 92 L 177.5 90 Z " /><path fill="rgb(224,241,251)" stroke="rgb(224,241,251)" stroke-width="1" opacity="1" d="M 354.5 96 L 355.5 98 L 354.5 96 Z " /><path fill="rgb(224,241,251)" stroke="rgb(224,241,251)" stroke-width="1" opacity="1" d="M 61.5 98 L 59 101.5 Q 59.8 103.8 57.5 103 L 48 111.5 L 61.5 98 Z " /><path fill="rgb(224,241,251)" stroke="rgb(224,241,251)" stroke-width="1" opacity="1" d="M 249.5 100 Q 254.1 103.4 255 110.5 L 254 110.5 L 249.5 100 Z " /><path fill="rgb(224,241,251)" stroke="rgb(224,241,251)" stroke-width="1" opacity="1" d="M 358.5 100 L 365.5 108 L 358.5 100 Z " /><path fill="rgb(224,241,251)" stroke="rgb(224,241,251)" stroke-width="1" opacity="1" d="M 255.5 112 L 257 121.5 L 256 121.5 L 255.5 112 Z " /><path fill="rgb(224,241,251)" stroke="rgb(224,241,251)" stroke-width="1" opacity="1" d="M 47.5 113 L 46 115.5 L 43.5 121 L 43 119.5 L 47.5 113 Z " /><path fill="rgb(224,241,251)" stroke="rgb(224,241,251)" stroke-width="1" opacity="1" d="M 317.5 119 L 318.5 121 L 317.5 119 Z " /><path fill="rgb(224,241,251)" stroke="rgb(224,241,251)" stroke-width="1" opacity="1" d="M 157.5 120 L 158 122.5 L 157 122.5 L 157.5 120 Z " /><path fill="rgb(224,241,251)" stroke="rgb(224,241,251)" stroke-width="1" opacity="1" d="M 255.5 123 L 256 127.5 L 255 127.5 L 255.5 123 Z " /><path fill="rgb(224,241,251)" stroke="rgb(224,241,251)" stroke-width="1" opacity="1" d="M 41.5 125 L 42 131.5 L 41 134.5 L 44 147.5 L 48 152.5 L 46 153 L 41 141.5 L 40 129.5 L 41.5 125 Z " /><path fill="rgb(224,241,251)" stroke="rgb(224,241,251)" stroke-width="1" opacity="1" d="M 326.5 128 L 312.5 143 L 326.5 128 Z " /><path fill="rgb(224,241,251)" stroke="rgb(224,241,251)" stroke-width="1" opacity="1" d="M 254.5 129 L 255 131.5 L 252 138 L 254.5 138 L 257.5 135 L 269.5 130 L 282.5 130 L 296.5 136 L 301 140.5 Q 300.3 142.8 302.5 142 L 306 146.5 L 302 151.5 L 306 149.5 L 292 162.5 L 301.5 152 L 290 162.5 L 288.5 165 L 283 169.5 Q 283.8 171.8 281.5 171 L 255.5 196 L 255.5 195 L 260 191.5 Q 259.3 189.3 261.5 190 L 286 165.5 L 286 164 L 291 160.5 Q 290.3 158.3 292.5 159 L 304 147.5 L 304 145.5 Q 295.4 130.6 271.5 131 Q 254.5 135 246 147.5 Q 246.8 149.8 244.5 149 L 212 181.5 L 212 184 L 216 186.5 Q 215.3 188.8 217.5 188 L 227 197.5 L 227 199 L 230 200.5 L 233.5 205 L 237 207.5 Q 236.3 209.8 238.5 209 L 241.5 210 L 255 197.5 L 241.5 211 L 238.5 211 L 231 204.5 L 230.5 206 L 229.5 204 L 231 203.5 L 211 183.5 L 211 181.5 L 217 174.5 L 213 176.5 L 226 164.5 L 218.5 173 L 238 154.5 L 237.5 153 L 234 155.5 L 237.5 152 L 239.5 152 L 243 149.5 L 242 147.5 L 245 143 L 249 140.5 L 254.5 129 Z M 251 139 L 249 142 L 251 142 L 251 139 Z M 248 143 L 246 145 L 248 145 L 248 143 Z " /><path fill="rgb(224,241,251)" stroke="rgb(224,241,251)" stroke-width="1" opacity="1" d="M 160.5 130 L 161.5 132 L 160.5 130 Z " /><path fill="rgb(224,241,251)" stroke="rgb(224,241,251)" stroke-width="1" opacity="1" d="M 372.5 133 L 373 135.5 L 372 135.5 L 372.5 133 Z " /><path fill="rgb(224,241,251)" stroke="rgb(224,241,251)" stroke-width="1" opacity="1" d="M 139.5 135 L 142 135.5 L 139.5 136 L 139.5 135 Z " /><path fill="rgb(224,241,251)" stroke="rgb(224,241,251)" stroke-width="1" opacity="1" d="M 151.5 135 L 154 135.5 L 151.5 136 L 151.5 135 Z " /><path fill="rgb(224,241,251)" stroke="rgb(224,241,251)" stroke-width="1" opacity="1" d="M 163.5 135 L 168.5 141 L 163.5 135 Z " /><path fill="rgb(224,241,251)" stroke="rgb(224,241,251)" stroke-width="1" opacity="1" d="M 135.5 136 L 138 136.5 L 130.5 140 L 131.5 138 L 135.5 136 Z " /><path fill="rgb(224,241,251)" stroke="rgb(224,241,251)" stroke-width="1" opacity="1" d="M 158.5 137 L 163 139.5 L 161.5 139 Q 157.8 138.8 158.5 137 Z " /><path fill="rgb(224,241,251)" stroke="rgb(224,241,251)" stroke-width="1" opacity="1" d="M 164.5 140 L 170 144.5 L 165.5 141 L 164.5 140 Z " /><path fill="rgb(224,241,251)" stroke="rgb(224,241,251)" stroke-width="1" opacity="1" d="M 170.5 142 L 176.5 149 L 175 148.5 L 174.5 150 L 171 145.5 L 172 144.5 L 170.5 142 Z M 173 145 Q 171 148 174 147 L 173 145 Z " /><path fill="rgb(224,241,251)" stroke="rgb(224,241,251)" stroke-width="1" opacity="1" d="M 310.5 144 L 308.5 147 L 310.5 144 Z " /><path fill="rgb(224,241,251)" stroke="rgb(224,241,251)" stroke-width="1" opacity="1" d="M 178.5 150 L 207.5 180 L 178.5 150 Z " /><path fill="rgb(224,241,251)" stroke="rgb(224,241,251)" stroke-width="1" opacity="1" d="M 364.5 150 L 358.5 157 L 364.5 150 Z " /><path fill="rgb(224,241,251)" stroke="rgb(224,241,251)" stroke-width="1" opacity="1" d="M 177.5 153 L 207 181.5 Q 207.5 186 204 186.5 L 205.5 187 L 209.5 184 L 210.5 186 L 208.5 185 L 191 201.5 L 204 187.5 L 187 203.5 L 189 204.5 L 181 212.5 L 181 214.5 L 223.5 258 L 221 256.5 L 238.5 275 L 240 274.5 L 230.5 264 L 243.5 278 L 242 277.5 L 251.5 288 L 254 289.5 L 257.5 294 L 261 296.5 Q 260.1 299.5 264.5 298 L 270 291 L 273 289.5 L 275.5 286 L 303.5 259 L 305 259 L 312 249 L 330 234 L 330 230.5 L 311 211.5 L 310 207.5 L 312 204.5 L 294 220.5 L 313 202.5 L 312.5 204 L 337.5 180 L 340.5 180 L 350 188 L 356.5 196 L 359 197.5 L 367.5 207 Q 369.8 206.3 369 208.5 L 373 212.5 L 378 225.5 L 378 237.5 L 372 253 L 370.5 253 L 346 277.5 Q 346.8 279.8 344.5 279 L 338 287 L 333 290.5 L 331.5 293 L 326 297.5 Q 326.8 299.8 324.5 299 L 307.5 317 L 296 326 L 288.5 336 Q 281 342.5 270.5 346 L 261.5 346 L 260.5 347 L 249.5 344 L 241.5 339 L 211.5 309 Q 210.2 311.3 209 308.5 Q 211.3 307.3 208.5 306 L 207.5 307 L 204 303.5 L 205 302.5 L 200.5 298 L 198.5 299 L 198.5 298 L 200 297.5 Q 198 293.8 196 295.5 L 196 293.5 Q 196.8 291.3 194.5 292 L 194.5 294 L 189 288.5 Q 191.3 287.3 188.5 286 L 187 286.5 L 188 285.5 L 169 266.5 Q 160.3 258.2 161 240.5 L 164 229.5 L 169 222.5 L 163.5 227 L 156.5 231 L 156.5 230 L 167 222.5 Q 166.3 220.3 168.5 221 L 172 216 L 173.5 216 L 193 196.5 Q 192.3 194.3 194.5 195 L 197 191 L 199 191 Q 197.9 188.3 200.5 189 L 206 183.5 L 206 181.5 L 177.5 154 L 114 217.5 L 114 219.5 Q 122.7 232.3 142.5 234 L 151.5 232 L 151.5 233 L 139.5 235 L 127.5 232 L 116 224 L 113 217.5 L 122 208.5 L 122 207 L 131 199.5 Q 130.3 197.3 132.5 198 L 135 194 L 136.5 194 L 153 177.5 L 153 176 L 155 176 Q 153.9 173.3 156.5 174 L 177.5 153 Z M 338 181 L 311 208 L 311 210 L 332 231 L 332 233 L 283 281 L 281 284 L 277 286 L 277 288 L 265 300 L 263 300 L 226 263 Q 223 264 224 262 L 219 258 L 217 254 Q 214 255 215 253 L 200 238 L 198 236 L 195 233 L 193 231 L 185 222 L 183 222 L 180 217 Q 174 216 173 221 Q 174 223 172 222 L 164 234 L 162 245 L 164 257 L 168 264 L 244 339 L 258 345 L 269 345 L 283 339 L 371 251 L 375 244 L 377 234 L 375 220 L 371 213 L 340 181 L 338 181 Z M 186 205 L 175 216 L 180 216 L 188 223 L 180 215 L 180 213 L 186 207 L 186 205 Z M 174 217 L 172 219 L 174 219 L 174 217 Z M 189 223 L 188 225 L 203 238 L 189 223 Z M 204 238 L 203 240 L 221 256 L 204 238 Z " /><path fill="rgb(224,241,251)" stroke="rgb(224,241,251)" stroke-width="1" opacity="1" d="M 170.5 157 L 169.5 159 L 170.5 157 Z " /><path fill="rgb(224,241,251)" stroke="rgb(224,241,251)" stroke-width="1" opacity="1" d="M 356.5 158 L 353.5 162 L 356.5 158 Z " /><path fill="rgb(224,241,251)" stroke="rgb(224,241,251)" stroke-width="1" opacity="1" d="M 167.5 159 L 168 160.5 L 164 163.5 L 167.5 159 Z " /><path fill="rgb(224,241,251)" stroke="rgb(224,241,251)" stroke-width="1" opacity="1" d="M 230.5 159 L 228.5 162 L 230.5 159 Z " /><path fill="rgb(224,241,251)" stroke="rgb(224,241,251)" stroke-width="1" opacity="1" d="M 351.5 163 L 348.5 167 L 351.5 163 Z " /><path fill="rgb(224,241,251)" stroke="rgb(224,241,251)" stroke-width="1" opacity="1" d="M 162.5 164 L 161.5 166 L 162.5 164 Z " /><path fill="rgb(224,241,251)" stroke="rgb(224,241,251)" stroke-width="1" opacity="1" d="M 287.5 167 L 284.5 171 L 287.5 167 Z " /><path fill="rgb(224,241,251)" stroke="rgb(224,241,251)" stroke-width="1" opacity="1" d="M 346.5 168 L 340.5 175 L 346.5 168 Z " /><path fill="rgb(224,241,251)" stroke="rgb(224,241,251)" stroke-width="1" opacity="1" d="M 157.5 169 L 156.5 171 L 157.5 169 Z " /><path fill="rgb(224,241,251)" stroke="rgb(224,241,251)" stroke-width="1" opacity="1" d="M 282.5 172 L 267.5 188 L 282.5 172 Z " /><path fill="rgb(224,241,251)" stroke="rgb(224,241,251)" stroke-width="1" opacity="1" d="M 152.5 174 L 151.5 176 L 152.5 174 Z " /><path fill="rgb(224,241,251)" stroke="rgb(224,241,251)" stroke-width="1" opacity="1" d="M 338.5 176 L 314.5 201 L 338.5 176 Z " /><path fill="rgb(224,241,251)" stroke="rgb(224,241,251)" stroke-width="1" opacity="1" d="M 211.5 178 L 210.5 180 L 211.5 178 Z " /><path fill="rgb(224,241,251)" stroke="rgb(224,241,251)" stroke-width="1" opacity="1" d="M 85.5 182 L 72.5 196 L 85.5 182 Z " /><path fill="rgb(224,241,251)" stroke="rgb(224,241,251)" stroke-width="1" opacity="1" d="M 145.5 182 L 141.5 187 L 140 186.5 L 145.5 182 Z " /><path fill="rgb(224,241,251)" stroke="rgb(224,241,251)" stroke-width="1" opacity="1" d="M 212.5 187 L 225.5 201 L 212.5 187 Z " /><path fill="rgb(224,241,251)" stroke="rgb(224,241,251)" stroke-width="1" opacity="1" d="M 139.5 188 L 138.5 190 L 139.5 188 Z " /><path fill="rgb(224,241,251)" stroke="rgb(224,241,251)" stroke-width="1" opacity="1" d="M 265.5 189 L 263.5 192 L 265.5 189 Z " /><path fill="rgb(224,241,251)" stroke="rgb(224,241,251)" stroke-width="1" opacity="1" d="M 136.5 190 L 134.5 193 L 136.5 190 Z " /><path fill="rgb(224,241,251)" stroke="rgb(224,241,251)" stroke-width="1" opacity="1" d="M 132.5 194 L 128.5 199 L 132.5 194 Z " /><path fill="rgb(224,241,251)" stroke="rgb(224,241,251)" stroke-width="1" opacity="1" d="M 260.5 194 L 245.5 210 L 260.5 194 Z " /><path fill="rgb(224,241,251)" stroke="rgb(224,241,251)" stroke-width="1" opacity="1" d="M 67.5 199 L 69 199.5 L 66 201.5 L 67.5 199 Z " /><path fill="rgb(224,241,251)" stroke="rgb(224,241,251)" stroke-width="1" opacity="1" d="M 127.5 200 L 125.5 203 L 125 201 L 127.5 200 Z " /><path fill="rgb(224,241,251)" stroke="rgb(224,241,251)" stroke-width="1" opacity="1" d="M 63.5 204 L 61.5 207 L 63.5 204 Z " /><path fill="rgb(224,241,251)" stroke="rgb(224,241,251)" stroke-width="1" opacity="1" d="M 58.5 209 L 52 216.5 L 49.5 220 L 51 217.5 L 58.5 209 Z " /><path fill="rgb(224,241,251)" stroke="rgb(224,241,251)" stroke-width="1" opacity="1" d="M 118.5 209 L 115.5 213 L 114 212.5 L 118.5 209 Z " /><path fill="rgb(224,241,251)" stroke="rgb(224,241,251)" stroke-width="1" opacity="1" d="M 239.5 214 L 242 215.5 L 244.5 219 L 246.5 218 L 249 220.5 L 248.5 223 L 239.5 214 Z " /><path fill="rgb(224,241,251)" stroke="rgb(224,241,251)" stroke-width="1" opacity="1" d="M 111.5 215 L 111 216.5 Q 111.8 218.8 109.5 218 L 111.5 215 Z " /><path fill="rgb(224,241,251)" stroke="rgb(224,241,251)" stroke-width="1" opacity="1" d="M 243.5 215 L 244.5 217 L 243.5 215 Z " /><path fill="rgb(224,241,251)" stroke="rgb(224,241,251)" stroke-width="1" opacity="1" d="M 106.5 220 L 106 221.5 L 103.5 225 L 104 223.5 L 106.5 220 Z " /><path fill="rgb(224,241,251)" stroke="rgb(224,241,251)" stroke-width="1" opacity="1" d="M 48.5 221 L 49 222.5 L 47.5 225 L 47 223.5 L 48.5 221 Z " /><path fill="rgb(224,241,251)" stroke="rgb(224,241,251)" stroke-width="1" opacity="1" d="M 250.5 224 L 255 229.5 L 250 225.5 L 250.5 224 Z " /><path fill="rgb(224,241,251)" stroke="rgb(224,241,251)" stroke-width="1" opacity="1" d="M 46.5 226 L 47 228.5 L 46 228.5 L 46.5 226 Z " /><path fill="rgb(224,241,251)" stroke="rgb(224,241,251)" stroke-width="1" opacity="1" d="M 98.5 229 L 97.5 231 L 98.5 229 Z " /><path fill="rgb(224,241,251)" stroke="rgb(224,241,251)" stroke-width="1" opacity="1" d="M 265.5 229 L 268 229.5 L 265.5 230 L 265.5 229 Z " /><path fill="rgb(224,241,251)" stroke="rgb(224,241,251)" stroke-width="1" opacity="1" d="M 275.5 229 L 278 229.5 L 275.5 230 L 275.5 229 Z " /><path fill="rgb(224,241,251)" stroke="rgb(224,241,251)" stroke-width="1" opacity="1" d="M 45.5 230 L 47 245.5 L 46 245.5 Q 43.3 239.5 45.5 230 Z " /><path fill="rgb(224,241,251)" stroke="rgb(224,241,251)" stroke-width="1" opacity="1" d="M 95.5 231 L 95 232.5 L 91.5 237 L 93 234.5 L 95.5 231 Z " /><path fill="rgb(224,241,251)" stroke="rgb(224,241,251)" stroke-width="1" opacity="1" d="M 255.5 231 L 258 234.5 L 256 233.5 L 255.5 231 Z " /><path fill="rgb(224,241,251)" stroke="rgb(224,241,251)" stroke-width="1" opacity="1" d="M 93.5 238 L 102.5 248 L 93.5 238 Z " /><path fill="rgb(224,241,251)" stroke="rgb(224,241,251)" stroke-width="1" opacity="1" d="M 260.5 242 L 261 256.5 L 260 256.5 L 260.5 242 Z " /><path fill="rgb(224,241,251)" stroke="rgb(224,241,251)" stroke-width="1" opacity="1" d="M 104.5 249 L 107.5 253 L 104.5 249 Z " /><path fill="rgb(224,241,251)" stroke="rgb(224,241,251)" stroke-width="1" opacity="1" d="M 50.5 254 L 54.5 259 L 50.5 254 Z " /><path fill="rgb(224,241,251)" stroke="rgb(224,241,251)" stroke-width="1" opacity="1" d="M 111.5 256 L 112.5 258 L 111.5 256 Z " /><path fill="rgb(224,241,251)" stroke="rgb(224,241,251)" stroke-width="1" opacity="1" d="M 225.5 259 L 228.5 263 L 225.5 259 Z " /><path fill="rgb(224,241,251)" stroke="rgb(224,241,251)" stroke-width="1" opacity="1" d="M 57.5 261 L 59.5 264 L 57.5 261 Z " /><path fill="rgb(224,241,251)" stroke="rgb(224,241,251)" stroke-width="1" opacity="1" d="M 116.5 261 L 118.5 264 L 116.5 261 Z " /><path fill="rgb(224,241,251)" stroke="rgb(224,241,251)" stroke-width="1" opacity="1" d="M 257.5 264 L 257 265.5 L 254.5 269 L 256 266.5 L 257.5 264 Z " /><path fill="rgb(224,241,251)" stroke="rgb(224,241,251)" stroke-width="1" opacity="1" d="M 120.5 265 L 123.5 269 L 120.5 265 Z " /><path fill="rgb(224,241,251)" stroke="rgb(224,241,251)" stroke-width="1" opacity="1" d="M 65.5 270 L 66.5 272 L 65.5 270 Z " /><path fill="rgb(224,241,251)" stroke="rgb(224,241,251)" stroke-width="1" opacity="1" d="M 253.5 270 L 246.5 278 L 253.5 270 Z " /><path fill="rgb(224,241,251)" stroke="rgb(224,241,251)" stroke-width="1" opacity="1" d="M 126.5 271 L 128.5 274 L 126.5 271 Z " /><path fill="rgb(224,241,251)" stroke="rgb(224,241,251)" stroke-width="1" opacity="1" d="M 69.5 274 L 71.5 277 L 69.5 274 Z " /><path fill="rgb(224,241,251)" stroke="rgb(224,241,251)" stroke-width="1" opacity="1" d="M 131.5 276 L 133.5 279 L 131.5 276 Z " /><path fill="rgb(224,241,251)" stroke="rgb(224,241,251)" stroke-width="1" opacity="1" d="M 74.5 279 L 75.5 281 L 74.5 279 Z " /><path fill="rgb(224,241,251)" stroke="rgb(224,241,251)" stroke-width="1" opacity="1" d="M 136.5 281 L 149.5 295 L 136.5 281 Z " /><path fill="rgb(224,241,251)" stroke="rgb(224,241,251)" stroke-width="1" opacity="1" d="M 78.5 282 L 80.5 285 L 78.5 282 Z " /><path fill="rgb(224,241,251)" stroke="rgb(224,241,251)" stroke-width="1" opacity="1" d="M 181.5 283 L 160.5 305 L 157 302.5 L 158.5 303 L 162 303 Q 160.9 300.3 163.5 301 L 165 298 L 166.5 298 L 181.5 283 Z " /><path fill="rgb(224,241,251)" stroke="rgb(224,241,251)" stroke-width="1" opacity="1" d="M 83.5 287 L 88 292.5 L 85 290.5 L 83.5 287 Z " /><path fill="rgb(224,241,251)" stroke="rgb(224,241,251)" stroke-width="1" opacity="1" d="M 89.5 294 L 92 295 L 93 297.5 L 89.5 294 Z " /><path fill="rgb(224,241,251)" stroke="rgb(224,241,251)" stroke-width="1" opacity="1" d="M 152.5 297 L 154.5 300 L 152.5 297 Z " /><path fill="rgb(224,241,251)" stroke="rgb(224,241,251)" stroke-width="1" opacity="1" d="M 96.5 301 L 97.5 303 L 96.5 301 Z " /><path fill="rgb(224,241,251)" stroke="rgb(224,241,251)" stroke-width="1" opacity="1" d="M 99.5 303 L 103 307.5 L 102 307.5 L 99.5 303 Z " /><path fill="rgb(224,241,251)" stroke="rgb(224,241,251)" stroke-width="1" opacity="1" d="M 104.5 308 L 110 314.5 L 107 312.5 L 104.5 308 Z " /><path fill="rgb(224,241,251)" stroke="rgb(224,241,251)" stroke-width="1" opacity="1" d="M 211.5 311 L 212 312.5 L 199 324.5 L 211.5 311 Z " /><path fill="rgb(224,241,251)" stroke="rgb(224,241,251)" stroke-width="1" opacity="1" d="M 111.5 316 L 115.5 321 L 111.5 316 Z " /><path fill="rgb(224,241,251)" stroke="rgb(224,241,251)" stroke-width="1" opacity="1" d="M 120.5 324 L 130.5 335 Q 128.3 335.8 129 333.5 L 120.5 324 Z " /><path fill="rgb(224,241,251)" stroke="rgb(224,241,251)" stroke-width="1" opacity="1" d="M 196.5 327 L 180.5 344 L 196.5 327 Z " /><path fill="rgb(224,241,251)" stroke="rgb(224,241,251)" stroke-width="1" opacity="1" d="M 132.5 336 L 133.5 338 L 132.5 336 Z " /><path fill="rgb(224,241,251)" stroke="rgb(224,241,251)" stroke-width="1" opacity="1" d="M 137.5 341 L 140.5 345 L 137.5 341 Z " /><path fill="rgb(224,241,251)" stroke="rgb(224,241,251)" stroke-width="1" opacity="1" d="M 178.5 344 L 177.5 346 L 178.5 344 Z " /><path fill="rgb(224,241,251)" stroke="rgb(224,241,251)" stroke-width="1" opacity="1" d="M 146.5 347 L 150 348.5 L 148.5 349 L 146.5 347 Z " /><path fill="rgb(224,241,251)" stroke="rgb(224,241,251)" stroke-width="1" opacity="1" d="M 171.5 347 L 173 347.5 L 169.5 349 L 169.5 348 L 171.5 347 Z " /><path fill="rgb(219,1,35)" stroke="rgb(219,1,35)" stroke-width="1" opacity="1" d="M 250.5 17 L 265.5 17 L 273 20 Q 271.8 23 275.5 22 L 278 23 L 280.5 27 L 283 28.5 L 285.5 32 L 290 35.5 L 296.5 43 L 300 45.5 L 301.5 48 L 305 50.5 Q 304.3 53.1 307 52 L 307 54 L 308.5 54 L 310 57 Q 312.7 55.9 312 58.5 L 317 62 Q 315.9 64.7 318.5 64 L 320 67 L 322 67 L 322 69 Q 324.7 67.9 324 70.5 L 327 72 L 327 74 Q 329.7 72.9 329 75.5 L 332 77 L 332 79 Q 334.7 77.9 334 80.5 L 340 85.5 L 344 90.5 L 347 92 Q 345.9 94.7 348.5 94 L 350 97 Q 352.7 95.9 352 98.5 L 357 102.5 Q 356.3 104.8 358.5 104 L 362 109 Q 364.7 107.9 364 110.5 L 369 119.5 L 370 131.5 Q 367.6 144.6 359.5 152 L 357 153.5 L 354.5 157 L 351 159.5 Q 351.8 161.8 349.5 161 L 347 165 L 345 165 Q 346.1 167.7 343.5 167 L 342 170 L 340 170 Q 341.1 172.7 338.5 172 L 333.5 178 L 330 180.5 Q 330.8 182.8 328.5 182 L 327 185 L 325 185 Q 326.1 187.7 323.5 187 L 318.5 193 L 315 195.5 L 315 197 L 313 197 Q 314.1 199.7 311.5 199 L 310 202 L 308 202 Q 309.1 204.7 306.5 204 L 305 207 L 300 210.5 Q 300.8 212.8 298.5 212 L 295 217 L 286.5 223 L 279.5 226 L 264.5 226 L 250 219 L 246 213.5 L 250 208 L 252 208 Q 250.9 205.3 253.5 206 L 260 198 L 264 195.5 L 265.5 193 L 269 190.5 L 270.5 188 L 284 175.5 Q 283.3 173.3 285.5 174 L 290.5 168 L 299 160.5 Q 298.3 158.3 300.5 159 L 307.5 151 L 329 130.5 L 329 126.5 L 321 117 L 319 117 Q 320.1 114.3 317.5 115 L 314 110 L 312 110 Q 313.1 107.3 310.5 108 L 309 105 L 306 103.5 Q 306.8 101.3 304.5 102 L 298.5 95 L 294 91.5 L 291.5 88 L 287 84.5 Q 287.8 82.3 285.5 83 L 282 78 L 279 76.5 Q 279.8 74.3 277.5 75 L 271.5 68 L 269 66.5 Q 269.8 64.3 267.5 65 Q 264.8 58.8 257.5 57 L 254 59.5 L 251.5 63 L 244 69.5 L 242.5 72 Q 240.3 71.3 241 73.5 L 238 75 L 236.5 78 Q 232.5 78.5 232 75.5 L 230.5 73 L 227 70.5 L 225.5 68 L 216 59.5 Q 216.8 57.3 214.5 58 L 211 52.5 L 217.5 45 Q 219.8 45.8 219 43.5 L 223.5 38 L 232 32 L 232 30 Q 234.7 31.1 234 28.5 L 237 27 Q 235.9 24.3 238.5 25 L 250.5 17 Z " /><path fill="rgb(219,1,35)" stroke="rgb(219,1,35)" stroke-width="1" opacity="1" d="M 173.5 90 L 181.5 99 L 186 102.5 Q 185.3 104.8 187.5 104 L 191 109 L 196 111 L 198 116 L 201 117.5 Q 200.3 119.8 202.5 119 L 206 124 L 207.5 124 L 220 136.5 Q 219.3 138.8 221.5 138 L 228 146 L 233 149.5 L 234 151.5 L 233 154 Q 230.3 152.9 231 155.5 L 228 157 L 228 159 Q 225.3 157.9 226 160.5 L 218 167 L 214.5 172 L 211 174.5 Q 211.8 177.1 208.5 176 L 200 168.5 Q 200.8 166.3 198.5 167 L 191.5 159 Q 189.3 159.8 190 157.5 L 186 155 L 182.5 150 L 178 146.5 Q 178.8 144.3 176.5 145 L 175 142 Q 172.3 143.1 173 140.5 L 170 139 L 167 133 Q 164.3 134.1 165 131.5 L 163 129.5 L 160 119.5 L 160 110.5 Q 162.7 97.7 171.5 91 L 173.5 90 Z " /><path fill="rgb(171,5,123)" stroke="rgb(171,5,123)" stroke-width="1" opacity="1" d="M 257.5 15 L 260 15.5 L 257.5 16 L 257.5 15 Z " /><path fill="rgb(171,5,123)" stroke="rgb(171,5,123)" stroke-width="1" opacity="1" d="M 280.5 24 L 289.5 34 L 280.5 24 Z " /><path fill="rgb(171,5,123)" stroke="rgb(171,5,123)" stroke-width="1" opacity="1" d="M 291.5 35 L 294.5 39 L 291.5 35 Z " /><path fill="rgb(171,5,123)" stroke="rgb(171,5,123)" stroke-width="1" opacity="1" d="M 296.5 40 L 300.5 45 L 296.5 40 Z " /><path fill="rgb(171,5,123)" stroke="rgb(171,5,123)" stroke-width="1" opacity="1" d="M 302.5 46 L 304.5 49 L 302.5 46 Z " /><path fill="rgb(171,5,123)" stroke="rgb(171,5,123)" stroke-width="1" opacity="1" d="M 308.5 52 L 310.5 55 L 308.5 52 Z " /><path fill="rgb(171,5,123)" stroke="rgb(171,5,123)" stroke-width="1" opacity="1" d="M 313.5 57 L 315.5 60 L 313.5 57 Z " /><path fill="rgb(171,5,123)" stroke="rgb(171,5,123)" stroke-width="1" opacity="1" d="M 254.5 61 L 242.5 74 L 254.5 61 Z " /><path fill="rgb(171,5,123)" stroke="rgb(171,5,123)" stroke-width="1" opacity="1" d="M 318.5 62 L 320.5 65 L 318.5 62 Z " /><path fill="rgb(171,5,123)" stroke="rgb(171,5,123)" stroke-width="1" opacity="1" d="M 324.5 68 L 325.5 70 L 324.5 68 Z " /><path fill="rgb(171,5,123)" stroke="rgb(171,5,123)" stroke-width="1" opacity="1" d="M 328.5 72 L 330.5 75 L 328.5 72 Z " /><path fill="rgb(171,5,123)" stroke="rgb(171,5,123)" stroke-width="1" opacity="1" d="M 239.5 76 L 236.5 80 L 239.5 76 Z " /><path fill="rgb(171,5,123)" stroke="rgb(171,5,123)" stroke-width="1" opacity="1" d="M 345.5 89 L 347.5 92 L 345.5 89 Z " /><path fill="rgb(171,5,123)" stroke="rgb(171,5,123)" stroke-width="1" opacity="1" d="M 351.5 95 L 352.5 97 L 351.5 95 Z " /><path fill="rgb(171,5,123)" stroke="rgb(171,5,123)" stroke-width="1" opacity="1" d="M 168.5 138 L 172.5 143 L 168.5 138 Z " /><path fill="rgb(171,5,123)" stroke="rgb(171,5,123)" stroke-width="1" opacity="1" d="M 140.5 139 L 150.5 139 L 151.5 140 L 154.5 139 L 164 144 Q 162.9 146.7 165.5 146 L 169 148.5 Q 168.3 151.1 171 150 L 171 153 L 164 157.5 L 162 160.5 L 159 162 L 153.5 169 L 151.5 168 L 151 169.5 L 152 170.5 L 147.5 175 L 144 177.5 Q 144.8 179.8 142.5 179 L 135.5 187 Q 132.2 185.9 133 188.5 L 132 191 L 129 192.5 L 129 194 L 127 194 Q 128.1 196.7 125.5 196 L 121 199.5 L 115.5 206 Q 113.3 205.3 114 207.5 L 112 211 L 109 212.5 Q 109.8 214.8 107.5 214 L 102 218.5 Q 102.5 222.5 99.5 223 L 97 224.5 L 94.5 228 Q 92.3 227.3 93 229.5 L 92 232 L 89 233.5 L 89.5 235 L 92 233.5 L 89 239.5 L 95.5 245 Q 96.8 242.7 98 245.5 L 96 245.5 L 102.5 254 L 105 255.5 L 105 257 L 107 257 Q 105.9 259.7 108.5 259 L 113 262 L 125.5 277 L 136 285.5 Q 135.3 287.8 137.5 287 L 139 286.5 L 138 288.5 L 145 297 Q 147.7 295.9 147 298.5 L 157.5 308 L 161.5 308 L 169 301.5 L 171.5 298 L 175 295.5 L 177 292.5 L 178 290.5 L 160.5 307 L 159 306.5 L 182.5 284 L 178.5 290 L 182 289 L 182.5 287 L 184 290 L 188.5 292 Q 190.2 289.2 192 293.5 L 191 295.5 L 204.5 310 Q 207.1 309.2 206 312.5 L 194.5 325 L 190 328.5 Q 190.8 330.8 188.5 330 L 185 334.5 L 187 334.5 L 182.5 337 L 180.5 338 L 177.5 336 L 179 338.5 L 175.5 343 L 164.5 347 L 155.5 347 L 148.5 345 L 139.5 339 L 139 340.5 L 140.5 343 L 131.5 333 L 137 337.5 L 131.5 330 L 129 328.5 Q 130.3 324.8 126.5 326 L 112.5 311 L 109 310 L 105 303 L 103 303 Q 104.1 300.3 101.5 301 L 95 294.5 L 95 292 Q 91.3 290.5 92 293.5 L 98.5 301 L 90.5 292 L 92 291.5 L 88 286 L 80 279.5 Q 80.8 277.3 78.5 278 Q 75.3 276.8 76 273 L 73.5 272 L 71.5 274 L 64 266.5 L 69 269.5 L 61.5 261 L 59.5 262 L 59 259.5 Q 55.3 256.4 55 251 Q 50.5 252.8 52 247.5 L 49 242.5 L 49 228.5 L 48 226.5 L 49 226.5 Q 48.3 229.1 51 228 L 52 221 Q 54.7 222.1 54 219.5 L 59 215.5 L 58 214.5 L 62.5 210 Q 65.1 210.7 64 208 L 66 208 L 66 206.5 L 69 205 L 72.5 200 L 77.5 196 L 82.5 190 Q 85.1 190.7 84 188 L 86 188 L 86 186 L 89 186 L 89 183 L 91 183 Q 89.9 180.3 92.5 181 L 98 177 L 99 173 L 101 173 Q 99.9 170.3 102.5 171 L 105 170.5 L 104 168.5 L 106 168 Q 104.8 165 108.5 166 L 111 161 Q 113.7 162.1 113 159.5 L 118 156 Q 116.9 153.3 119.5 154 L 121 151 Q 123.7 152.1 123 149.5 L 126 148 Q 124.9 145.3 127.5 146 L 134.5 141 Q 139.1 141.6 140.5 139 Z M 70 270 L 71 272 Q 72 269 70 270 Z M 190 292 Q 188 295 191 294 L 190 292 Z " /><path fill="rgb(171,5,123)" stroke="rgb(171,5,123)" stroke-width="1" opacity="1" d="M 159.5 139 L 165 142.5 L 163.5 142 Q 159.5 141.5 159.5 139 Z " /><path fill="rgb(171,5,123)" stroke="rgb(171,5,123)" stroke-width="1" opacity="1" d="M 131.5 140 L 130.5 142 L 128.5 143 L 129.5 141 L 131.5 140 Z " /><path fill="rgb(171,5,123)" stroke="rgb(171,5,123)" stroke-width="1" opacity="1" d="M 126.5 143 L 101.5 169 L 126.5 143 Z " /><path fill="rgb(171,5,123)" stroke="rgb(171,5,123)" stroke-width="1" opacity="1" d="M 166.5 143 L 170.5 148 L 166.5 143 Z " /><path fill="rgb(171,5,123)" stroke="rgb(171,5,123)" stroke-width="1" opacity="1" d="M 174.5 144 L 176.5 147 L 174.5 144 Z " /><path fill="rgb(171,5,123)" stroke="rgb(171,5,123)" stroke-width="1" opacity="1" d="M 179.5 149 L 189.5 160 L 179.5 149 Z " /><path fill="rgb(171,5,123)" stroke="rgb(171,5,123)" stroke-width="1" opacity="1" d="M 363.5 149 L 359.5 154 L 363.5 149 Z " /><path fill="rgb(171,5,123)" stroke="rgb(171,5,123)" stroke-width="1" opacity="1" d="M 170.5 154 L 168.5 157 L 170.5 154 Z " /><path fill="rgb(171,5,123)" stroke="rgb(171,5,123)" stroke-width="1" opacity="1" d="M 356.5 156 L 335.5 178 L 356.5 156 Z " /><path fill="rgb(171,5,123)" stroke="rgb(171,5,123)" stroke-width="1" opacity="1" d="M 165.5 159 L 163.5 162 L 165.5 159 Z " /><path fill="rgb(171,5,123)" stroke="rgb(171,5,123)" stroke-width="1" opacity="1" d="M 191.5 161 L 192.5 163 L 191.5 161 Z " /><path fill="rgb(171,5,123)" stroke="rgb(171,5,123)" stroke-width="1" opacity="1" d="M 161.5 163 L 158.5 167 L 161.5 163 Z " /><path fill="rgb(171,5,123)" stroke="rgb(171,5,123)" stroke-width="1" opacity="1" d="M 194.5 164 L 197.5 168 L 194.5 164 Z " /><path fill="rgb(171,5,123)" stroke="rgb(171,5,123)" stroke-width="1" opacity="1" d="M 99.5 170 L 85.5 185 L 99.5 170 Z " /><path fill="rgb(171,5,123)" stroke="rgb(171,5,123)" stroke-width="1" opacity="1" d="M 201.5 171 L 202.5 173 L 201.5 171 Z " /><path fill="rgb(171,5,123)" stroke="rgb(171,5,123)" stroke-width="1" opacity="1" d="M 204.5 174 L 207.5 178 L 204.5 174 Z " /><path fill="rgb(171,5,123)" stroke="rgb(171,5,123)" stroke-width="1" opacity="1" d="M 277.5 179 L 275.5 182 L 277.5 179 Z " /><path fill="rgb(171,5,123)" stroke="rgb(171,5,123)" stroke-width="1" opacity="1" d="M 333.5 179 L 332.5 181 L 333.5 179 Z " /><path fill="rgb(171,5,123)" stroke="rgb(171,5,123)" stroke-width="1" opacity="1" d="M 144.5 180 L 141.5 184 L 144.5 180 Z " /><path fill="rgb(171,5,123)" stroke="rgb(171,5,123)" stroke-width="1" opacity="1" d="M 330.5 182 L 327.5 186 L 330.5 182 Z " /><path fill="rgb(171,5,123)" stroke="rgb(171,5,123)" stroke-width="1" opacity="1" d="M 271.5 185 L 270.5 187 L 271.5 185 Z " /><path fill="rgb(171,5,123)" stroke="rgb(171,5,123)" stroke-width="1" opacity="1" d="M 83.5 186 L 74.5 196 L 83.5 186 Z " /><path fill="rgb(171,5,123)" stroke="rgb(171,5,123)" stroke-width="1" opacity="1" d="M 138.5 186 L 136.5 189 L 138.5 186 Z " /><path fill="rgb(171,5,123)" stroke="rgb(171,5,123)" stroke-width="1" opacity="1" d="M 207.5 187 L 204.5 191 L 207.5 187 Z " /><path fill="rgb(171,5,123)" stroke="rgb(171,5,123)" stroke-width="1" opacity="1" d="M 210.5 187 L 216.5 194 L 210.5 187 Z " /><path fill="rgb(171,5,123)" stroke="rgb(171,5,123)" stroke-width="1" opacity="1" d="M 267.5 189 L 265.5 192 L 267.5 189 Z " /><path fill="rgb(171,5,123)" stroke="rgb(171,5,123)" stroke-width="1" opacity="1" d="M 323.5 189 L 321.5 192 L 323.5 189 Z " /><path fill="rgb(171,5,123)" stroke="rgb(171,5,123)" stroke-width="1" opacity="1" d="M 207 190 L 212.5 192 L 224 203.5 L 227.5 208 L 230 207.5 L 225.5 202 L 234 210.5 L 233 211.5 Q 232.3 215.3 234.5 216 L 237.5 217 L 248 227.5 L 249.5 230 Q 251.8 229.3 251 231.5 L 254 236.5 Q 251.5 238 255 239.5 Q 254 244.5 257 243.5 L 257 247.5 L 258 249.5 L 253 266 Q 250.3 264.9 251 267.5 L 246.5 273 Q 242.1 274.5 243 271.5 L 237.5 267 L 236 267.5 L 237 265.5 L 228 257.5 L 226 254.5 L 227 252 L 223.5 252 L 214.5 243 L 213 243 L 209 236 Q 206 237.3 207 233.5 L 205.5 234 L 199.5 228 Q 197.3 228.8 198 226.5 L 194 224 L 190.5 219 L 188.5 218 L 187 218.5 L 188 215 Q 183.9 216.7 185 212.5 Q 187.9 206.8 194 206 L 195 201.5 L 183 211.5 L 198 197.5 L 195.5 201 L 207 191.5 L 207 190 Z M 231 208 L 230 210 L 233 211 L 231 208 Z " /><path fill="rgb(171,5,123)" stroke="rgb(171,5,123)" stroke-width="1" opacity="1" d="M 133.5 191 L 131.5 194 L 133.5 191 Z " /><path fill="rgb(171,5,123)" stroke="rgb(171,5,123)" stroke-width="1" opacity="1" d="M 202.5 192 L 200.5 195 L 202.5 192 Z " /><path fill="rgb(171,5,123)" stroke="rgb(171,5,123)" stroke-width="1" opacity="1" d="M 319.5 193 L 316.5 197 L 319.5 193 Z " /><path fill="rgb(171,5,123)" stroke="rgb(171,5,123)" stroke-width="1" opacity="1" d="M 261.5 195 L 259.5 198 L 261.5 195 Z " /><path fill="rgb(171,5,123)" stroke="rgb(171,5,123)" stroke-width="1" opacity="1" d="M 72.5 197 L 64.5 206 L 72.5 197 Z " /><path fill="rgb(171,5,123)" stroke="rgb(171,5,123)" stroke-width="1" opacity="1" d="M 220.5 197 L 222.5 200 L 220.5 197 Z " /><path fill="rgb(171,5,123)" stroke="rgb(171,5,123)" stroke-width="1" opacity="1" d="M 126.5 198 L 121.5 204 L 126.5 198 Z " /><path fill="rgb(171,5,123)" stroke="rgb(171,5,123)" stroke-width="1" opacity="1" d="M 313.5 199 L 312.5 201 L 313.5 199 Z " /><path fill="rgb(171,5,123)" stroke="rgb(171,5,123)" stroke-width="1" opacity="1" d="M 119.5 205 L 111.5 214 L 119.5 205 Z " /><path fill="rgb(171,5,123)" stroke="rgb(171,5,123)" stroke-width="1" opacity="1" d="M 307.5 205 L 306.5 207 L 307.5 205 Z " /><path fill="rgb(171,5,123)" stroke="rgb(171,5,123)" stroke-width="1" opacity="1" d="M 250.5 206 L 247.5 210 L 250.5 206 Z " /><path fill="rgb(171,5,123)" stroke="rgb(171,5,123)" stroke-width="1" opacity="1" d="M 62.5 207 L 59.5 211 L 62.5 207 Z " /><path fill="rgb(171,5,123)" stroke="rgb(171,5,123)" stroke-width="1" opacity="1" d="M 302.5 210 L 300.5 213 L 302.5 210 Z " /><path fill="rgb(171,5,123)" stroke="rgb(171,5,123)" stroke-width="1" opacity="1" d="M 245.5 211 L 244.5 213 L 245.5 211 Z " /><path fill="rgb(171,5,123)" stroke="rgb(171,5,123)" stroke-width="1" opacity="1" d="M 235.5 212 L 238.5 216 L 235.5 212 Z " /><path fill="rgb(171,5,123)" stroke="rgb(171,5,123)" stroke-width="1" opacity="1" d="M 56.5 213 L 53.5 217 L 56.5 213 Z " /><path fill="rgb(171,5,123)" stroke="rgb(171,5,123)" stroke-width="1" opacity="1" d="M 182.5 214 L 184.5 217 L 182.5 214 Z " /><path fill="rgb(171,5,123)" stroke="rgb(171,5,123)" stroke-width="1" opacity="1" d="M 297.5 215 L 295.5 218 L 297.5 215 Z " /><path fill="rgb(171,5,123)" stroke="rgb(171,5,123)" stroke-width="1" opacity="1" d="M 107.5 217 L 105.5 220 L 107.5 217 Z " /><path fill="rgb(171,5,123)" stroke="rgb(171,5,123)" stroke-width="1" opacity="1" d="M 241.5 218 L 243.5 221 L 241.5 218 Z " /><path fill="rgb(171,5,123)" stroke="rgb(171,5,123)" stroke-width="1" opacity="1" d="M 188.5 220 L 190.5 223 L 188.5 220 Z " /><path fill="rgb(171,5,123)" stroke="rgb(171,5,123)" stroke-width="1" opacity="1" d="M 102.5 222 L 93.5 232 L 102.5 222 Z " /><path fill="rgb(171,5,123)" stroke="rgb(171,5,123)" stroke-width="1" opacity="1" d="M 246.5 223 L 248.5 226 L 246.5 223 Z " /><path fill="rgb(171,5,123)" stroke="rgb(171,5,123)" stroke-width="1" opacity="1" d="M 194.5 226 L 195.5 228 L 194.5 226 Z " /><path fill="rgb(171,5,123)" stroke="rgb(171,5,123)" stroke-width="1" opacity="1" d="M 251.5 228 L 256 234.5 L 254 233.5 L 251.5 228 Z " /><path fill="rgb(171,5,123)" stroke="rgb(171,5,123)" stroke-width="1" opacity="1" d="M 198.5 230 L 200.5 233 L 198.5 230 Z " /><path fill="rgb(171,5,123)" stroke="rgb(171,5,123)" stroke-width="1" opacity="1" d="M 203.5 235 L 205.5 238 L 203.5 235 Z " /><path fill="rgb(171,5,123)" stroke="rgb(171,5,123)" stroke-width="1" opacity="1" d="M 257.5 238 L 259 245.5 L 258 245.5 L 257.5 238 Z " /><path fill="rgb(171,5,123)" stroke="rgb(171,5,123)" stroke-width="1" opacity="1" d="M 209.5 241 L 210.5 243 L 209.5 241 Z " /><path fill="rgb(171,5,123)" stroke="rgb(171,5,123)" stroke-width="1" opacity="1" d="M 214.5 246 L 216.5 249 L 214.5 246 Z " /><path fill="rgb(171,5,123)" stroke="rgb(171,5,123)" stroke-width="1" opacity="1" d="M 52.5 254 L 55.5 258 L 52.5 254 Z " /><path fill="rgb(171,5,123)" stroke="rgb(171,5,123)" stroke-width="1" opacity="1" d="M 258.5 254 L 259 256.5 L 257.5 260 L 257 257.5 L 258.5 254 Z " /><path fill="rgb(171,5,123)" stroke="rgb(171,5,123)" stroke-width="1" opacity="1" d="M 254.5 266 L 253.5 268 L 254.5 266 Z " /><path fill="rgb(171,5,123)" stroke="rgb(171,5,123)" stroke-width="1" opacity="1" d="M 250.5 271 L 245.5 277 L 250.5 271 Z " /><path fill="rgb(171,5,123)" stroke="rgb(171,5,123)" stroke-width="1" opacity="1" d="M 74.5 276 L 76.5 279 L 74.5 276 Z " /><path fill="rgb(171,5,123)" stroke="rgb(171,5,123)" stroke-width="1" opacity="1" d="M 80.5 282 L 81.5 284 L 80.5 282 Z " /><path fill="rgb(171,5,123)" stroke="rgb(171,5,123)" stroke-width="1" opacity="1" d="M 185.5 287 L 186.5 289 L 185.5 287 Z " /><path fill="rgb(171,5,123)" stroke="rgb(171,5,123)" stroke-width="1" opacity="1" d="M 153.5 301 L 154.5 303 L 153.5 301 Z " /><path fill="rgb(171,5,123)" stroke="rgb(171,5,123)" stroke-width="1" opacity="1" d="M 199.5 301 L 200.5 303 L 199.5 301 Z " /><path fill="rgb(171,5,123)" stroke="rgb(171,5,123)" stroke-width="1" opacity="1" d="M 104.5 306 L 106.5 309 L 104.5 306 Z " /><path fill="rgb(171,5,123)" stroke="rgb(171,5,123)" stroke-width="1" opacity="1" d="M 205.5 307 L 207.5 310 L 205.5 307 Z " /><path fill="rgb(171,5,123)" stroke="rgb(171,5,123)" stroke-width="1" opacity="1" d="M 110.5 312 L 122.5 325 L 110.5 312 Z " /><path fill="rgb(171,5,123)" stroke="rgb(171,5,123)" stroke-width="1" opacity="1" d="M 208.5 313 L 205.5 317 L 208.5 313 Z " /><path fill="rgb(171,5,123)" stroke="rgb(171,5,123)" stroke-width="1" opacity="1" d="M 198.5 323 L 194.5 328 L 198.5 323 Z " /><path fill="rgb(171,5,123)" stroke="rgb(171,5,123)" stroke-width="1" opacity="1" d="M 126.5 328 L 128.5 331 L 126.5 328 Z " /><path fill="rgb(171,5,123)" stroke="rgb(171,5,123)" stroke-width="1" opacity="1" d="M 191.5 330 L 189.5 333 L 191.5 330 Z " /><path fill="rgb(171,5,123)" stroke="rgb(171,5,123)" stroke-width="1" opacity="1" d="M 142.5 343 L 143.5 345 L 142.5 343 Z " /><path fill="rgb(3,76,146)" stroke="rgb(3,76,146)" stroke-width="1" opacity="1" d="M 148.5 21 L 161.5 21 L 174.5 27 L 249 101.5 L 254 113.5 L 254 126.5 Q 251.1 140.6 240.5 147 L 239 147 L 239 145 Q 236.3 146.1 237 143.5 L 224 131.5 Q 224.8 129.3 222.5 130 L 218 124 L 214 121.5 L 206.5 113 L 203 110.5 L 201.5 108 L 193 100.5 L 190.5 97 L 187 94.5 L 185.5 92 L 181 88.5 Q 181.8 86.3 179.5 87 L 171 78.5 L 171 77 L 166 73.5 L 164.5 71 L 161 68.5 L 159.5 66 L 156 63.5 L 155.5 62 L 152 64.5 L 150.5 67 L 147 69.5 L 145.5 72 L 142 74.5 L 140.5 77 L 136 80.5 Q 136.8 82.8 134.5 82 L 129.5 88 L 126 90.5 Q 126.8 92.8 124.5 92 L 105 111.5 L 105 113 L 103.5 113 L 85 131.5 L 84 133.5 L 106 156.5 L 79.5 183 L 78 183 L 78 181.5 L 46 148.5 Q 42.2 141.8 42 131.5 L 44 122.5 L 49 113.5 L 135.5 27 L 148.5 21 Z " /><path fill="rgb(3,76,146)" stroke="rgb(3,76,146)" stroke-width="1" opacity="1" d="M 177 155 Q 179.7 153.9 179 156.5 L 195 171.5 L 196.5 174 L 199 175.5 L 205 182.5 L 162.5 225 L 149.5 232 L 140.5 233 Q 139.2 230.8 134.5 232 L 123.5 227 L 115 218.5 L 117.5 215 L 120 213.5 Q 119.3 211.3 121.5 212 L 127.5 205 Q 129.8 205.8 129 203.5 L 134 199.5 L 136.5 196 L 139 194.5 L 141.5 191 L 145 188.5 L 146.5 186 L 150 183.5 L 152.5 180 L 156 177.5 L 157.5 175 L 161 172.5 L 162.5 170 L 167 166.5 L 168.5 164 L 172 161.5 L 173.5 159 L 177 156.5 L 177 155 Z " /><path fill="rgb(240,179,206)" stroke="rgb(240,179,206)" stroke-width="1" opacity="1" d="M 251.5 15 L 257 15.5 Q 245.4 16.4 238.5 22 L 208 52.5 L 234.5 80 Q 239.5 80.5 240 76.5 Q 239.3 74.3 241.5 75 L 257.5 59 L 259.5 59 L 328 127.5 L 328 129.5 L 304.5 153 L 303 153 L 303 154.5 L 292.5 165 Q 290.3 164.3 291 166.5 L 287 169 L 282.5 175 Q 280.3 174.3 281 176.5 L 275 181.5 L 272.5 185 L 270 186.5 L 268.5 189 L 265 191.5 L 262.5 195 L 259 197.5 L 256.5 201 Q 254.3 200.3 255 202.5 L 247 209.5 Q 247.8 211.8 245.5 211 L 244 214.5 Q 250.7 222.8 261.5 227 Q 268.2 229.3 278.5 228 Q 290.8 224.3 298 215.5 L 299.5 213 L 303 210.5 L 305.5 207 L 308 205.5 L 310.5 202 L 314 199.5 L 315.5 197 L 320 193.5 Q 319.3 191.3 321.5 192 L 326.5 186 L 331 182.5 Q 330.3 180.3 332.5 181 L 367 145.5 L 371 135.5 L 371 121.5 L 364 107.5 L 280.5 24 Q 273.5 16.5 260 15.5 L 265.5 15 L 277.5 20 L 285 26 L 285 27.5 L 298.5 41 L 301 42.5 L 303.5 46 L 306 47.5 L 308.5 51 L 312 53.5 L 318.5 61 L 322 63.5 L 323.5 66 L 327 68.5 L 328.5 71 L 333 74.5 L 335.5 78 Q 337.8 77.3 337 79.5 L 343 84.5 L 344.5 87 L 354 95.5 L 355.5 98 L 358 99.5 L 370 114.5 L 373 124.5 L 373 132.5 L 369 144.5 L 358 158 L 353 161.5 Q 353.8 163.8 351.5 163 L 348 168 L 346.5 168 L 290.5 224 L 279.5 229 L 268.5 230 Q 251.1 226.9 243 214.5 L 243 212.5 L 327 128.5 L 257.5 60 L 254 65 L 252.5 65 L 243 74.5 Q 243.8 76.8 241.5 76 L 236.5 81 L 234.5 81 L 229 76.5 Q 229.8 74.3 227.5 75 L 223.5 70 L 221 68.5 L 217.5 64 Q 215.3 64.8 216 62.5 L 209 56.5 L 207 51.5 L 219.5 39 L 221 39 L 221 37.5 L 237.5 21 L 251.5 15 Z " /><path fill="rgb(240,179,206)" stroke="rgb(240,179,206)" stroke-width="1" opacity="1" d="M 171.5 87 L 177 89.5 L 178.5 92 L 237 149.5 L 238 151.5 L 231.5 159 L 228 161.5 L 226.5 164 L 213 176.5 Q 213.8 178.8 211.5 178 L 208.5 180 L 170.5 142 L 169 142 L 159 127.5 L 157 119.5 L 157 110.5 Q 160.5 95 171.5 87 Z M 173 88 Q 163 95 159 108 L 159 123 L 166 137 L 208 178 L 211 178 L 236 153 L 236 151 L 173 88 Z " /><path fill="rgb(240,179,206)" stroke="rgb(240,179,206)" stroke-width="1" opacity="1" d="M 142.5 135 L 150.5 135 L 157.5 137 L 171 145 L 175 150.5 L 175 152.5 L 172 154 L 168.5 159 Q 166.3 158.3 167 160.5 L 161 165.5 L 158.5 169 L 156 170.5 L 153.5 174 L 151 175.5 L 147.5 180 Q 145.3 179.3 146 181.5 L 140 186.5 L 137.5 190 L 134 192.5 Q 134.8 194.8 132.5 194 L 126.5 201 Q 124.3 200.3 125 202.5 L 120 206 L 116.5 211 L 114 212.5 L 112.5 215 L 109 217.5 L 107.5 220 L 104 222.5 L 100.5 227 Q 98.3 226.3 99 228.5 L 93 233.5 L 91 236.5 L 160.5 305 L 182.5 283 L 183.5 284 L 198 297.5 Q 197.3 299.8 199.5 299 L 211 310.5 L 211 312.5 L 179.5 344 L 172.5 347 L 172.5 346 L 177.5 344 L 192 330.5 L 193.5 328 L 199 323.5 L 200.5 321 Q 202.8 321.8 202 319.5 L 209 313.5 L 210 311.5 L 182.5 284 L 160.5 306 L 157 304.5 Q 157.8 302.3 155.5 303 L 151 297 L 149.5 297 L 90 237.5 L 90 235.5 L 174 150.5 Q 167.8 142.2 157.5 138 Q 150.4 135.6 139.5 137 L 126.5 143 L 53 216.5 L 47 230.5 L 47 242.5 L 52 254.5 L 140.5 343 L 147 346.5 L 145.5 347 L 136 341 L 136 339 Q 133.3 340.1 134 337.5 L 131 336 L 131 334.5 L 120.5 324 L 118 322.5 Q 118.8 320.3 116.5 321 L 104.5 308 Q 102.3 308.8 103 306.5 L 95 299.5 Q 95.8 297.3 93.5 298 L 92 295 L 86 290.5 L 83.5 287 L 81 285.5 L 78.5 282 L 60 264.5 L 57.5 261 L 55 259.5 Q 44.2 250.8 46 229.5 L 49 220.5 L 60.5 207 L 64 204.5 L 65.5 202 L 69 199.5 L 71.5 196 L 86 182.5 Q 85.3 180.3 87.5 181 L 127.5 141 L 142.5 135 Z " /><path fill="rgb(240,179,206)" stroke="rgb(240,179,206)" stroke-width="1" opacity="1" d="M 208.5 185 L 212 186 L 212 187.5 L 225.5 201 L 229 203.5 L 230.5 206 L 235 209.5 Q 234.3 211.8 236.5 211 L 247.5 223 L 250 224.5 Q 256.6 230.9 260 240.5 L 260 257.5 Q 255.7 270.7 245.5 278 L 181 214.5 L 181 212.5 L 190.5 202 L 208.5 185 Z M 209 186 L 182 213 L 182 215 L 186 217 L 188 221 L 192 223 L 194 227 L 197 228 L 198 231 L 202 233 L 203 236 L 207 238 L 209 242 L 212 243 L 214 247 L 218 249 L 220 253 L 222 253 L 246 277 L 255 267 L 259 257 L 259 242 L 253 230 L 209 186 Z " /><path fill="rgb(240,179,206)" stroke="rgb(240,179,206)" stroke-width="1" opacity="1" d="M 148.5 347 Q 154.3 350.3 164.5 349 L 168.5 348 L 168.5 349 Q 163.4 351.4 154.5 350 L 148.5 348 L 148.5 347 Z " /><path fill="rgb(8,145,165)" stroke="rgb(8,145,165)" stroke-width="1" opacity="1" d="M 151.5 20 L 159 20.5 L 151.5 21 L 151.5 20 Z " /><path fill="rgb(8,145,165)" stroke="rgb(8,145,165)" stroke-width="1" opacity="1" d="M 139.5 24 L 138.5 26 L 136.5 27 L 137.5 25 L 139.5 24 Z " /><path fill="rgb(8,145,165)" stroke="rgb(8,145,165)" stroke-width="1" opacity="1" d="M 172.5 25 L 173.5 27 L 172.5 25 Z " /><path fill="rgb(8,145,165)" stroke="rgb(8,145,165)" stroke-width="1" opacity="1" d="M 176.5 28 L 247.5 100 L 176.5 28 Z " /><path fill="rgb(8,145,165)" stroke="rgb(8,145,165)" stroke-width="1" opacity="1" d="M 129.5 32 L 125.5 37 L 129.5 32 Z " /><path fill="rgb(8,145,165)" stroke="rgb(8,145,165)" stroke-width="1" opacity="1" d="M 122.5 39 L 120.5 42 L 122.5 39 Z " /><path fill="rgb(8,145,165)" stroke="rgb(8,145,165)" stroke-width="1" opacity="1" d="M 112.5 49 L 109.5 53 L 112.5 49 Z " /><path fill="rgb(8,145,165)" stroke="rgb(8,145,165)" stroke-width="1" opacity="1" d="M 107.5 54 L 105.5 57 L 107.5 54 Z " /><path fill="rgb(8,145,165)" stroke="rgb(8,145,165)" stroke-width="1" opacity="1" d="M 101.5 60 L 99.5 63 L 101.5 60 Z " /><path fill="rgb(8,145,165)" stroke="rgb(8,145,165)" stroke-width="1" opacity="1" d="M 153.5 63 L 152.5 65 L 153.5 63 Z " /><path fill="rgb(8,145,165)" stroke="rgb(8,145,165)" stroke-width="1" opacity="1" d="M 96.5 65 L 94.5 68 L 96.5 65 Z " /><path fill="rgb(8,145,165)" stroke="rgb(8,145,165)" stroke-width="1" opacity="1" d="M 159.5 66 L 160.5 68 L 159.5 66 Z " /><path fill="rgb(8,145,165)" stroke="rgb(8,145,165)" stroke-width="1" opacity="1" d="M 149.5 67 L 147.5 70 L 149.5 67 Z " /><path fill="rgb(8,145,165)" stroke="rgb(8,145,165)" stroke-width="1" opacity="1" d="M 92.5 69 L 89.5 73 L 92.5 69 Z " /><path fill="rgb(8,145,165)" stroke="rgb(8,145,165)" stroke-width="1" opacity="1" d="M 164.5 71 L 165.5 73 L 164.5 71 Z " /><path fill="rgb(8,145,165)" stroke="rgb(8,145,165)" stroke-width="1" opacity="1" d="M 144.5 72 L 142.5 75 L 144.5 72 Z " /><path fill="rgb(8,145,165)" stroke="rgb(8,145,165)" stroke-width="1" opacity="1" d="M 86.5 75 L 49.5 113 L 86.5 75 Z " /><path fill="rgb(8,145,165)" stroke="rgb(8,145,165)" stroke-width="1" opacity="1" d="M 139.5 77 L 136.5 81 L 139.5 77 Z " /><path fill="rgb(8,145,165)" stroke="rgb(8,145,165)" stroke-width="1" opacity="1" d="M 134.5 82 L 131.5 86 L 134.5 82 Z " /><path fill="rgb(8,145,165)" stroke="rgb(8,145,165)" stroke-width="1" opacity="1" d="M 128.5 88 L 126.5 91 L 128.5 88 Z " /><path fill="rgb(8,145,165)" stroke="rgb(8,145,165)" stroke-width="1" opacity="1" d="M 124.5 92 L 105.5 112 L 124.5 92 Z " /><path fill="rgb(8,145,165)" stroke="rgb(8,145,165)" stroke-width="1" opacity="1" d="M 185.5 92 L 186.5 94 L 185.5 92 Z " /><path fill="rgb(8,145,165)" stroke="rgb(8,145,165)" stroke-width="1" opacity="1" d="M 190.5 97 L 192.5 100 L 190.5 97 Z " /><path fill="rgb(8,145,165)" stroke="rgb(8,145,165)" stroke-width="1" opacity="1" d="M 249.5 102 L 250.5 104 L 249.5 102 Z " /><path fill="rgb(8,145,165)" stroke="rgb(8,145,165)" stroke-width="1" opacity="1" d="M 201.5 108 L 202.5 110 L 201.5 108 Z " /><path fill="rgb(8,145,165)" stroke="rgb(8,145,165)" stroke-width="1" opacity="1" d="M 103.5 113 L 85.5 132 L 103.5 113 Z " /><path fill="rgb(8,145,165)" stroke="rgb(8,145,165)" stroke-width="1" opacity="1" d="M 206.5 113 L 213.5 121 L 206.5 113 Z " /><path fill="rgb(8,145,165)" stroke="rgb(8,145,165)" stroke-width="1" opacity="1" d="M 48.5 114 L 47.5 116 L 48.5 114 Z " /><path fill="rgb(8,145,165)" stroke="rgb(8,145,165)" stroke-width="1" opacity="1" d="M 254.5 115 L 255 124.5 L 254 124.5 L 254.5 115 Z " /><path fill="rgb(8,145,165)" stroke="rgb(8,145,165)" stroke-width="1" opacity="1" d="M 42.5 128 L 43 130.5 L 42 130.5 L 42.5 128 Z " /><path fill="rgb(8,145,165)" stroke="rgb(8,145,165)" stroke-width="1" opacity="1" d="M 271.5 132 L 285.5 133 Q 296.5 137 303 145.5 L 301.5 149 L 296 153.5 Q 296.8 155.8 294.5 155 L 239.5 209 L 213 181.5 L 216 180 L 216 178 Q 218.7 179.1 218 176.5 L 234 161.5 L 235.5 159 L 239 156.5 L 240.5 154 L 243 152.5 L 246.5 148 L 249 146.5 L 251.5 143 Q 258.7 134.7 271.5 132 Z " /><path fill="rgb(8,145,165)" stroke="rgb(8,145,165)" stroke-width="1" opacity="1" d="M 84.5 133 L 105.5 155 L 84.5 133 Z " /><path fill="rgb(8,145,165)" stroke="rgb(8,145,165)" stroke-width="1" opacity="1" d="M 227.5 134 L 236.5 144 L 227.5 134 Z " /><path fill="rgb(8,145,165)" stroke="rgb(8,145,165)" stroke-width="1" opacity="1" d="M 42.5 135 L 43 137.5 L 42 137.5 L 42.5 135 Z " /><path fill="rgb(8,145,165)" stroke="rgb(8,145,165)" stroke-width="1" opacity="1" d="M 246.5 141 L 240.5 148 L 246.5 141 Z " /><path fill="rgb(8,145,165)" stroke="rgb(8,145,165)" stroke-width="1" opacity="1" d="M 47.5 150 L 48.5 152 L 47.5 150 Z " /><path fill="rgb(8,145,165)" stroke="rgb(8,145,165)" stroke-width="1" opacity="1" d="M 49.5 153 L 77.5 182 L 49.5 153 Z " /><path fill="rgb(8,145,165)" stroke="rgb(8,145,165)" stroke-width="1" opacity="1" d="M 176.5 156 L 174.5 159 L 176.5 156 Z " /><path fill="rgb(8,145,165)" stroke="rgb(8,145,165)" stroke-width="1" opacity="1" d="M 179.5 156 L 191.5 169 L 179.5 156 Z " /><path fill="rgb(8,145,165)" stroke="rgb(8,145,165)" stroke-width="1" opacity="1" d="M 105.5 157 L 80.5 183 L 105.5 157 Z " /><path fill="rgb(8,145,165)" stroke="rgb(8,145,165)" stroke-width="1" opacity="1" d="M 171.5 161 L 169.5 164 L 171.5 161 Z " /><path fill="rgb(8,145,165)" stroke="rgb(8,145,165)" stroke-width="1" opacity="1" d="M 166.5 166 L 163.5 170 L 166.5 166 Z " /><path fill="rgb(8,145,165)" stroke="rgb(8,145,165)" stroke-width="1" opacity="1" d="M 160.5 172 L 158.5 175 L 160.5 172 Z " /><path fill="rgb(8,145,165)" stroke="rgb(8,145,165)" stroke-width="1" opacity="1" d="M 195.5 172 L 196.5 174 L 195.5 172 Z " /><path fill="rgb(8,145,165)" stroke="rgb(8,145,165)" stroke-width="1" opacity="1" d="M 199.5 176 L 204.5 182 L 199.5 176 Z " /><path fill="rgb(8,145,165)" stroke="rgb(8,145,165)" stroke-width="1" opacity="1" d="M 155.5 177 L 153.5 180 L 155.5 177 Z " /><path fill="rgb(8,145,165)" stroke="rgb(8,145,165)" stroke-width="1" opacity="1" d="M 337 182 L 339.5 182 L 369 211.5 Q 376.3 219.3 376 234.5 Q 374.4 244.9 369 251.5 L 283.5 337 Q 275.3 345.3 257.5 344 Q 248.2 342.3 242.5 337 L 170 264.5 Q 161.8 256.2 164 237.5 Q 167.5 224 177.5 217 L 197.5 237 L 199 237 L 199 238.5 L 223.5 263 Q 225.8 262.3 225 264.5 L 239.5 279 L 241 279 L 241 280.5 L 260.5 300 L 264.5 301 L 333 232.5 L 333 230.5 L 312 209.5 L 312 207.5 L 335.5 184 L 337 184 L 337 182 Z " /><path fill="rgb(8,145,165)" stroke="rgb(8,145,165)" stroke-width="1" opacity="1" d="M 149.5 183 L 147.5 186 L 149.5 183 Z " /><path fill="rgb(8,145,165)" stroke="rgb(8,145,165)" stroke-width="1" opacity="1" d="M 204.5 183 L 165.5 223 L 204.5 183 Z " /><path fill="rgb(8,145,165)" stroke="rgb(8,145,165)" stroke-width="1" opacity="1" d="M 144.5 188 L 142.5 191 L 144.5 188 Z " /><path fill="rgb(8,145,165)" stroke="rgb(8,145,165)" stroke-width="1" opacity="1" d="M 138.5 194 L 137.5 196 L 138.5 194 Z " /><path fill="rgb(8,145,165)" stroke="rgb(8,145,165)" stroke-width="1" opacity="1" d="M 133.5 199 L 132.5 201 L 133.5 199 Z " /><path fill="rgb(8,145,165)" stroke="rgb(8,145,165)" stroke-width="1" opacity="1" d="M 124.5 208 L 121.5 212 L 124.5 208 Z " /><path fill="rgb(8,145,165)" stroke="rgb(8,145,165)" stroke-width="1" opacity="1" d="M 119.5 213 L 118.5 215 L 119.5 213 Z " /><path fill="rgb(8,145,165)" stroke="rgb(8,145,165)" stroke-width="1" opacity="1" d="M 115.5 219 L 121.5 226 L 115.5 219 Z " /><path fill="rgb(8,145,165)" stroke="rgb(8,145,165)" stroke-width="1" opacity="1" d="M 161.5 225 L 159.5 228 L 161.5 225 Z " /><path fill="rgb(8,145,165)" stroke="rgb(8,145,165)" stroke-width="1" opacity="1" d="M 143.5 232 L 146 232.5 L 143.5 233 L 143.5 232 Z " /><path fill="rgb(149,200,216)" stroke="rgb(149,200,216)" stroke-width="1" opacity="1" d="M 147.5 20 L 151 20.5 L 147.5 21 L 147.5 20 Z " /><path fill="rgb(149,200,216)" stroke="rgb(149,200,216)" stroke-width="1" opacity="1" d="M 159.5 20 L 163 20.5 L 159.5 21 L 159.5 20 Z " /><path fill="rgb(149,200,216)" stroke="rgb(149,200,216)" stroke-width="1" opacity="1" d="M 144.5 21 L 146 21.5 L 142.5 23 L 142.5 22 L 144.5 21 Z " /><path fill="rgb(149,200,216)" stroke="rgb(149,200,216)" stroke-width="1" opacity="1" d="M 167.5 22 L 172 24.5 L 170.5 24 Q 166.8 23.8 167.5 22 Z " /><path fill="rgb(149,200,216)" stroke="rgb(149,200,216)" stroke-width="1" opacity="1" d="M 137.5 24 L 139 24.5 L 132 29 L 130.5 32 L 127.5 34 L 132.5 28 L 137.5 24 Z " /><path fill="rgb(149,200,216)" stroke="rgb(149,200,216)" stroke-width="1" opacity="1" d="M 173.5 25 L 177 27.5 L 175.5 28 L 173.5 25 Z " /><path fill="rgb(149,200,216)" stroke="rgb(149,200,216)" stroke-width="1" opacity="1" d="M 178.5 29 L 192.5 44 L 178.5 29 Z " /><path fill="rgb(149,200,216)" stroke="rgb(149,200,216)" stroke-width="1" opacity="1" d="M 123.5 37 L 125 37.5 L 120 41.5 L 117.5 45 Q 115.3 44.3 116 46.5 L 109 52.5 Q 109.8 54.8 107.5 54 L 105 55.5 L 123.5 37 Z " /><path fill="rgb(149,200,216)" stroke="rgb(149,200,216)" stroke-width="1" opacity="1" d="M 194.5 45 L 251 102.5 L 248 100.5 L 194.5 45 Z " /><path fill="rgb(149,200,216)" stroke="rgb(149,200,216)" stroke-width="1" opacity="1" d="M 103.5 57 L 105 57.5 L 102 59.5 L 103.5 57 Z " /><path fill="rgb(149,200,216)" stroke="rgb(149,200,216)" stroke-width="1" opacity="1" d="M 100.5 60 L 99 62.5 L 97.5 65 L 94 67.5 Q 94.8 69.8 92.5 69 L 87.5 75 L 80.5 81 L 100.5 60 Z " /><path fill="rgb(149,200,216)" stroke="rgb(149,200,216)" stroke-width="1" opacity="1" d="M 154.5 63 L 240 147.5 L 165.5 74 Q 163.3 74.8 164 72.5 L 154.5 64 L 86 133.5 L 107 154.5 L 107 157.5 L 105 158.5 L 106 154.5 L 85 132.5 L 154.5 63 Z " /><path fill="rgb(149,200,216)" stroke="rgb(149,200,216)" stroke-width="1" opacity="1" d="M 78.5 82 L 59.5 102 L 78.5 82 Z " /><path fill="rgb(149,200,216)" stroke="rgb(149,200,216)" stroke-width="1" opacity="1" d="M 57.5 103 L 49 112.5 Q 43.9 118.4 42.5 128 L 42 124.5 Q 46.7 110.7 57.5 103 Z " /><path fill="rgb(149,200,216)" stroke="rgb(149,200,216)" stroke-width="1" opacity="1" d="M 252.5 106 L 255 114.5 L 254 114.5 L 252.5 106 Z " /><path fill="rgb(149,200,216)" stroke="rgb(149,200,216)" stroke-width="1" opacity="1" d="M 255.5 118 L 256 122.5 L 255 122.5 L 255.5 118 Z " /><path fill="rgb(149,200,216)" stroke="rgb(149,200,216)" stroke-width="1" opacity="1" d="M 254.5 125 L 255 128.5 Q 252.4 137.4 246.5 143 L 247 141.5 Q 253 135.5 254.5 125 Z " /><path fill="rgb(149,200,216)" stroke="rgb(149,200,216)" stroke-width="1" opacity="1" d="M 271.5 131 Q 280.5 129.5 285 132.5 L 281.5 133 L 280.5 132 L 271.5 132 L 258.5 137 L 249 145.5 L 247.5 148 L 246 147.5 Q 254.5 135 271.5 131 Z " /><path fill="rgb(149,200,216)" stroke="rgb(149,200,216)" stroke-width="1" opacity="1" d="M 41.5 132 L 42 134.5 L 41 134.5 L 41.5 132 Z " /><path fill="rgb(149,200,216)" stroke="rgb(149,200,216)" stroke-width="1" opacity="1" d="M 286.5 133 Q 298.1 136.4 304 145.5 L 304 147.5 L 292.5 159 Q 290.3 158.3 291 160.5 L 286 164 L 286 165.5 L 261.5 190 Q 259.3 189.3 260 191.5 L 255 195 L 255 196.5 L 241.5 210 L 237 209 L 234.5 205 L 230 201.5 L 228.5 199 Q 226.3 199.8 227 197.5 L 217.5 188 L 216 188 L 213.5 184 Q 210.9 184.8 212 181.5 L 245 149.5 L 241.5 154 L 239 155.5 L 236.5 159 L 234 160.5 L 231.5 164 L 218 176.5 L 218 178 L 216 178 Q 217.1 180.7 214.5 180 L 213 182.5 L 240.5 209 L 294.5 155 L 296 155 L 300.5 149 L 303 147.5 L 303 145.5 L 296.5 139 L 286.5 134 L 286.5 133 Z " /><path fill="rgb(149,200,216)" stroke="rgb(149,200,216)" stroke-width="1" opacity="1" d="M 42.5 138 L 43 141.5 L 42 141.5 L 42.5 138 Z " /><path fill="rgb(149,200,216)" stroke="rgb(149,200,216)" stroke-width="1" opacity="1" d="M 43.5 143 L 49 153.5 L 78.5 183 L 80.5 183 L 103.5 160 L 80.5 184 L 78.5 184 L 48 153.5 L 44 147.5 L 43.5 143 Z " /><path fill="rgb(149,200,216)" stroke="rgb(149,200,216)" stroke-width="1" opacity="1" d="M 244.5 144 L 241.5 148 L 244.5 144 Z " /><path fill="rgb(149,200,216)" stroke="rgb(149,200,216)" stroke-width="1" opacity="1" d="M 177.5 154 L 206 181.5 L 206 183.5 L 200.5 189 L 205 183.5 L 205 181.5 L 178.5 155 L 115 217.5 L 115 219.5 L 121 225.5 L 114 219.5 L 114 217.5 L 177.5 154 Z " /><path fill="rgb(149,200,216)" stroke="rgb(149,200,216)" stroke-width="1" opacity="1" d="M 337.5 181 L 339.5 181 L 371 212.5 L 375 219.5 L 377 233.5 L 376 233.5 Q 376 219 369 211.5 L 339.5 182 L 337 182 Q 338.1 184.7 335.5 184 L 312 207.5 L 312 209.5 L 333 230.5 L 333 232.5 L 264.5 301 L 262.5 301 L 241 280.5 Q 241.8 278.3 239.5 279 L 225 263.5 L 262.5 300 L 264.5 300 L 277 287.5 Q 276.3 285.3 278.5 286 L 282.5 281 L 332 232.5 L 332 230.5 L 311 209.5 L 311 207.5 L 337.5 181 Z " /><path fill="rgb(149,200,216)" stroke="rgb(149,200,216)" stroke-width="1" opacity="1" d="M 196.5 192 L 194.5 195 L 196.5 192 Z " /><path fill="rgb(149,200,216)" stroke="rgb(149,200,216)" stroke-width="1" opacity="1" d="M 192.5 196 L 173.5 216 L 192.5 196 Z " /><path fill="rgb(149,200,216)" stroke="rgb(149,200,216)" stroke-width="1" opacity="1" d="M 171.5 217 L 168.5 221 L 171.5 217 Z " /><path fill="rgb(149,200,216)" stroke="rgb(149,200,216)" stroke-width="1" opacity="1" d="M 176.5 217 L 173.5 221 L 176.5 217 Z " /><path fill="rgb(149,200,216)" stroke="rgb(149,200,216)" stroke-width="1" opacity="1" d="M 178.5 217 L 183 220.5 Q 182.3 222.8 184.5 222 L 194.5 233 L 198 235.5 L 197.5 237 L 178.5 217 Z " /><path fill="rgb(149,200,216)" stroke="rgb(149,200,216)" stroke-width="1" opacity="1" d="M 166.5 222 L 163.5 226 L 154.5 231 L 154.5 230 Q 162.3 227.8 166.5 222 Z " /><path fill="rgb(149,200,216)" stroke="rgb(149,200,216)" stroke-width="1" opacity="1" d="M 171.5 222 L 171 223.5 L 164 237.5 L 164 251.5 L 167 259.5 L 165 258.5 L 162 244.5 L 164 233.5 L 171.5 222 Z " /><path fill="rgb(149,200,216)" stroke="rgb(149,200,216)" stroke-width="1" opacity="1" d="M 122.5 226 L 130 230.5 L 128.5 231 Q 123.5 229.5 122.5 226 Z " /><path fill="rgb(149,200,216)" stroke="rgb(149,200,216)" stroke-width="1" opacity="1" d="M 134.5 232 L 138 232.5 L 134.5 233 L 134.5 232 Z " /><path fill="rgb(149,200,216)" stroke="rgb(149,200,216)" stroke-width="1" opacity="1" d="M 146.5 232 L 149 232.5 L 146.5 233 L 146.5 232 Z " /><path fill="rgb(149,200,216)" stroke="rgb(149,200,216)" stroke-width="1" opacity="1" d="M 140.5 233 L 143 233.5 L 140.5 234 L 140.5 233 Z " /><path fill="rgb(149,200,216)" stroke="rgb(149,200,216)" stroke-width="1" opacity="1" d="M 375.5 235 L 376 239.5 L 371 250.5 L 282.5 339 L 276.5 342 L 276.5 341 L 283.5 337 L 369 251.5 Q 374.4 245.4 375.5 235 Z " /><path fill="rgb(149,200,216)" stroke="rgb(149,200,216)" stroke-width="1" opacity="1" d="M 199.5 238 L 215 252.5 Q 214.3 254.8 216.5 254 L 219 258 L 224 261.5 L 223.5 263 L 199.5 238 Z " /><path fill="rgb(149,200,216)" stroke="rgb(149,200,216)" stroke-width="1" opacity="1" d="M 167.5 261 L 242.5 337 L 250 341.5 L 248.5 342 L 243.5 339 L 168 263.5 L 167.5 261 Z " /><path fill="rgb(149,200,216)" stroke="rgb(149,200,216)" stroke-width="1" opacity="1" d="M 251.5 342 Q 257.6 345.4 268.5 344 L 274.5 342 L 274.5 343 Q 268.4 346.4 257.5 345 L 251.5 343 L 251.5 342 Z " /></svg>